<?xml version="1.0" encoding="UTF-8" standalone="no"?>
<svg width="249px" height="184px" viewBox="0 0 249 184" version="1.1" xmlns="http://www.w3.org/2000/svg" xmlns:xlink="http://www.w3.org/1999/xlink">
    <!-- Generator: Sketch 41.2 (35397) - http://www.bohemiancoding.com/sketch -->
    <title>Group 22</title>
    <desc>Created with Sketch.</desc>
    <defs></defs>
    <g id="Landing" stroke="none" stroke-width="1" fill="none" fill-rule="evenodd">
        <g id="Landing-Screen-v2-Copy" transform="translate(-171.000000, -1026.000000)" fill="#FFFFFF">
            <g id="Group-22" transform="translate(171.000000, 1026.000000)">
                <polygon id="Fill-1" points="75.7655048 -0.000240289337 64.5972356 8.16959721 64.5972356 54.0648608 75.7655048 54.0648608 86.5828125 43.2518406 86.5828125 54.0648608 118.638101 54.0648608 119.078005 9.66900268 108.217428 -0.000240289337"></polygon>
                <polygon id="Fill-2" points="118.638221 183.821103 86.5829327 183.821103 86.5829327 173.008083 75.765625 183.821103 64.5961538 183.821103 64.5961538 137.92584 75.765625 129.756002 108.217548 129.756002 119.078125 139.425245"></polygon>
                <polygon id="Fill-3" points="129.852043 -0.000240289337 129.852043 54.0648608 173.121274 54.0648608 183.938582 43.2518406 183.938582 32.4388204 173.121274 21.6258001 183.938582 21.6258001 183.938582 10.8127799 173.121274 -0.000240289337"></polygon>
                <polygon id="Fill-4" points="10.8173077 64.877881 0 75.6909012 0 97.3169416 10.8617788 97.3169416 0 108.129962 0.0444711538 118.942982 40.5649038 118.942982 54.1310096 108.129962 54.1310096 86.5039214 43.3137019 86.5039214 54.1310096 75.6909012 54.0865385 64.877881"></polygon>
                <polygon id="Fill-5" points="76.066226 88.0056096 64.9484375 75.6907811 64.9484375 64.8777609 119.034976 64.8777609 119.034976 75.6907811 108.217668 86.5038013 108.217668 118.942862 75.7657452 118.942862"></polygon>
                <polygon id="Fill-6" points="194.755889 129.756002 194.755889 140.569022 205.873678 152.883851 205.573197 183.821103 238.02512 183.821103 238.02512 151.382043 248.842428 140.569022 248.842428 129.756002"></polygon>
                <polygon id="Fill-7" points="129.852284 118.944063 129.852284 64.8777609 173.121514 64.8777609 183.938822 75.6907811 184.539784 97.3168215 173.121514 108.129842 183.938822 118.944063"></polygon>
                <polygon id="Fill-8" points="129.852284 140.569022 140.669591 129.756002 183.938822 129.756002 183.938822 151.382043 173.121514 151.382043 183.938822 162.195063 183.938822 183.822305 140.669591 183.821103 129.852284 173.008083"></polygon>
            </g>
        </g>
    </g>
</svg>