<?xml version="1.0" encoding="UTF-8" standalone="no"?>
<svg width="258px" height="400px" viewBox="0 0 258 400" version="1.1" xmlns="http://www.w3.org/2000/svg" xmlns:xlink="http://www.w3.org/1999/xlink">
    <!-- Generator: Sketch 41.2 (35397) - http://www.bohemiancoding.com/sketch -->
    <title>Page 1</title>
    <desc>Created with Sketch.</desc>
    <defs>
        <polygon id="path-1" points="70.0663768 0.0647164567 0.146910926 0.0647164567 0.146910926 70.0771293 70.0663768 70.0771293 70.0663768 0.0647164567"></polygon>
    </defs>
    <g id="Landing" stroke="none" stroke-width="1" fill="none" fill-rule="evenodd">
        <g id="Landing-Screen-v2-Copy" transform="translate(-936.000000, -1618.000000)">
            <g id="Page-1" transform="translate(936.000000, 1618.000000)">
                <g id="Group-38" transform="translate(0.000000, 0.150503)">
                    <g id="Group-3" transform="translate(39.293627, 0.000000)">
                        <mask id="mask-2" fill="white">
                            <use xlink:href="#path-1"></use>
                        </mask>
                        <g id="Clip-2"></g>
                        <path d="M35.1066439,0.0646734557 C15.7988722,0.0646734557 0.146910926,15.7374512 0.146910926,35.0709014 C0.146910926,54.4045666 15.7988722,70.0771293 35.1066439,70.0771293 C54.413986,70.0771293 70.0663768,54.4045666 70.0663768,35.0709014 C70.0663768,15.7374512 54.413986,0.0646734557 35.1066439,0.0646734557" id="Fill-1" fill="#D6DF23" mask="url(#mask-2)"></path>
                    </g>
                    <path d="M189.188785,156.537885 C183.033643,156.537885 178.043137,161.534383 178.043137,167.697712 C178.043137,173.86061 183.033643,178.857108 189.188785,178.857108 C195.343713,178.857108 200.333145,173.86061 200.333145,167.697712 C200.333145,161.534383 195.343713,156.537885 189.188785,156.537885" id="Fill-4" fill="#D6DF23"></path>
                    <path d="M196.411169,262.663694 C196.411169,295.453007 169.865425,322.03384 137.120092,322.03384 C104.374544,322.03384 77.8288005,295.453007 77.8288005,262.663694 C77.8288005,229.874596 104.374544,203.293547 137.120092,203.293547 C169.865425,203.293547 196.411169,229.874596 196.411169,262.663694" id="Fill-6" fill="#E59D24"></path>
                    <path d="M247.57132,190.670742 C247.57132,202.518154 237.979596,212.122635 226.147705,212.122635 C214.316029,212.122635 204.724519,202.518154 204.724519,190.670742 C204.724519,178.823331 214.316029,169.218634 226.147705,169.218634 C237.979596,169.218634 247.57132,178.823331 247.57132,190.670742" id="Fill-8" fill="#E59D24"></path>
                    <path d="M209.308389,286.327298 C209.308389,279.606247 214.749375,274.158024 221.461285,274.158024 C228.173409,274.158024 233.61461,279.606247 233.61461,286.327298 C233.61461,293.04835 228.173409,298.497002 221.461285,298.497002 C214.749375,298.497002 209.308389,293.04835 209.308389,286.327298" id="Fill-10" fill="#E59D24"></path>
                    <path d="M257.923172,275.327866 C257.923172,280.044427 254.105034,283.867858 249.394308,283.867858 C244.683797,283.867858 240.865229,280.044427 240.865229,275.327866 C240.865229,270.611089 244.683797,266.787443 249.394308,266.787443 C254.105034,266.787443 257.923172,270.611089 257.923172,275.327866" id="Fill-12" fill="#E59D24"></path>
                    <path d="M174.508235,191.663269 C171.842925,191.663269 169.68242,193.826648 169.68242,196.495503 C169.68242,199.164143 171.842925,201.327522 174.508235,201.327522 C177.173546,201.327522 179.333836,199.164143 179.333836,196.495503 C179.333836,193.826648 177.173546,191.663269 174.508235,191.663269" id="Fill-14" fill="#D6DF23"></path>
                    <path d="M137.438778,288.903529 C137.438778,293.896157 133.397332,297.943408 128.411765,297.943408 C123.425769,297.943408 119.383894,293.896157 119.383894,288.903529 C119.383894,283.911117 123.425769,279.864081 128.411765,279.864081 C133.397332,279.864081 137.438778,283.911117 137.438778,288.903529" id="Fill-16" fill="#D6DF23"></path>
                    <path d="M172.222398,306.66108 C172.222398,316.283191 164.432383,324.083137 154.823696,324.083137 C145.214794,324.083137 137.424993,316.283191 137.424993,306.66108 C137.424993,297.039183 145.214794,289.239453 154.823696,289.239453 C164.432383,289.239453 172.222398,297.039183 172.222398,306.66108" id="Fill-18" fill="#91909B"></path>
                    <path d="M89.5525801,47.6597357 C40.0941431,47.6597357 4.29438544e-05,87.8071594 4.29438544e-05,137.331374 C4.29438544e-05,186.856019 40.0941431,227.003227 89.5525801,227.003227 C139.011017,227.003227 179.105332,186.856019 179.105332,137.331374 C179.105332,87.8071594 139.011017,47.6597357 89.5525801,47.6597357" id="Fill-22" fill="#D6DF23"></path>
                    <path d="M91.5521319,293.331296 C62.3387161,293.331296 38.6558246,317.045255 38.6558246,346.297523 C38.6558246,375.550006 62.3387161,399.263965 91.5521319,399.263965 C120.765548,399.263965 144.447795,375.550006 144.447795,346.297523 C144.447795,317.045255 120.765548,293.331296 91.5521319,293.331296" id="Fill-24" fill="#D6DF23"></path>
                    <path d="M155.692021,333.127853 C155.692021,327.67705 160.104716,323.258271 165.548494,323.258271 C170.992272,323.258271 175.405182,327.67705 175.405182,333.127853 C175.405182,338.578656 170.992272,342.997865 165.548494,342.997865 C160.104716,342.997865 155.692021,338.578656 155.692021,333.127853" id="Fill-26" fill="#D6DF23"></path>
                    <path d="M213.594057,200.0975 C194.101412,200.0975 178.299576,215.919921 178.299576,235.438706 C178.299576,254.957275 194.101412,270.780126 213.594057,270.780126 C233.086702,270.780126 248.888537,254.957275 248.888537,235.438706 C248.888537,215.919921 233.086702,200.0975 213.594057,200.0975" id="Fill-28" fill="#D6DF23"></path>
                    <path d="M257.451348,209.927715 C257.451348,213.196004 254.806007,215.845508 251.54163,215.845508 C248.277682,215.845508 245.631482,213.196004 245.631482,209.927715 C245.631482,206.659212 248.277682,204.009707 251.54163,204.009707 C254.806007,204.009707 257.451348,206.659212 257.451348,209.927715" id="Fill-30" fill="#91909B"></path>
                    <path d="M204.747129,178.388978 C202.069794,178.388978 199.899197,180.562247 199.899197,183.243357 C199.899197,185.924252 202.069794,188.097521 204.747129,188.097521 C207.424678,188.097521 209.595061,185.924252 209.595061,183.243357 C209.595061,180.562247 207.424678,178.388978 204.747129,178.388978" id="Fill-32" fill="#D6DF23"></path>
                    <path d="M183.474547,119.528092 C183.474547,122.196732 181.314257,124.359896 178.649376,124.359896 C175.984495,124.359896 173.823989,122.196732 173.823989,119.528092 C173.823989,116.859882 175.984495,114.696503 178.649376,114.696503 C181.314257,114.696503 183.474547,116.859882 183.474547,119.528092" id="Fill-20" fill="#91909B"></path>
                </g>
                <path d="M73.8239855,10.1659663 C73.7054605,10.1659663 73.6092662,10.2622885 73.6092662,10.3809712 C73.6092662,10.4996538 73.7054605,10.595976 73.8239855,10.595976 C73.9425105,10.595976 74.0387048,10.4996538 74.0387048,10.3809712 C74.0387048,10.2622885 73.9425105,10.1659663 73.8239855,10.1659663" id="Fill-40" fill="#895837"></path>
                <path d="M117.317242,224.263098 L63.959503,224.263098" id="Stroke-42" stroke="#895837" stroke-width="0.5" stroke-linecap="round"></path>
                <path d="M117.317242,224.048093 C117.198717,224.048093 117.102523,224.144416 117.102523,224.263098 C117.102523,224.381781 117.198717,224.478103 117.317242,224.478103 C117.435767,224.478103 117.531961,224.381781 117.531961,224.263098 C117.531961,224.144416 117.435767,224.048093 117.317242,224.048093" id="Fill-43" fill="#895837"></path>
                <path d="M174.293387,195.696201 L112.781254,195.696201" id="Stroke-45" stroke="#895837" stroke-width="0.5" stroke-linecap="round"></path>
                <path d="M174.293387,195.481196 C174.174862,195.481196 174.078668,195.577518 174.078668,195.696201 C174.078668,195.814883 174.174862,195.911206 174.293387,195.911206 C174.411912,195.911206 174.508107,195.814883 174.508107,195.696201 C174.508107,195.577518 174.411912,195.481196 174.293387,195.481196" id="Fill-46" fill="#895837"></path>
                <path d="M140.158005,252.634363 L63.3958649,252.634363" id="Stroke-48" stroke="#895837" stroke-width="0.5" stroke-linecap="round"></path>
                <path d="M140.158005,252.419358 C140.03948,252.419358 139.943285,252.51568 139.943285,252.634363 C139.943285,252.753046 140.03948,252.849368 140.158005,252.849368 C140.27653,252.849368 140.372724,252.753046 140.372724,252.634363 C140.372724,252.51568 140.27653,252.419358 140.158005,252.419358" id="Fill-49" fill="#895837"></path>
                <path d="M208.814492,355.263332 L136.346737,355.263332" id="Stroke-51" stroke="#895837" stroke-width="0.5" stroke-linecap="round"></path>
                <path d="M136.346737,355.048328 C136.228212,355.048328 136.132018,355.14465 136.132018,355.263332 C136.132018,355.382015 136.228212,355.478337 136.346737,355.478337 C136.465263,355.478337 136.561457,355.382015 136.561457,355.263332 C136.561457,355.14465 136.465263,355.048328 136.346737,355.048328" id="Fill-52" fill="#895837"></path>
                <path d="M208.814492,319.927395 L170.057663,319.927395" id="Stroke-54" stroke="#895837" stroke-width="0.5" stroke-linecap="round"></path>
                <path d="M170.057663,319.71239 C169.939138,319.71239 169.842944,319.808712 169.842944,319.927395 C169.842944,320.046077 169.939138,320.142399 170.057663,320.142399 C170.176188,320.142399 170.272382,320.046077 170.272382,319.927395 C170.272382,319.808712 170.176188,319.71239 170.057663,319.71239" id="Fill-55" fill="#895837"></path>
                <path d="M158.903341,293.827248 L88.0884953,293.827248" id="Stroke-57" stroke="#895837" stroke-width="0.5" stroke-linecap="round"></path>
                <path d="M158.903341,293.612243 C158.784815,293.612243 158.688621,293.708565 158.688621,293.827248 C158.688621,293.94593 158.784815,294.042252 158.903341,294.042252 C159.021866,294.042252 159.11806,293.94593 159.11806,293.827248 C159.11806,293.708565 159.021866,293.612243 158.903341,293.612243" id="Fill-58" fill="#895837"></path>
                <path d="M132.499398,281.362901 L63.6105842,281.362901" id="Stroke-60" stroke="#895837" stroke-width="0.5" stroke-linecap="round"></path>
                <path d="M132.499398,281.147896 C132.380873,281.147896 132.284678,281.244218 132.284678,281.362901 C132.284678,281.481584 132.380873,281.577906 132.499398,281.577906 C132.617923,281.577906 132.714117,281.481584 132.714117,281.362901 C132.714117,281.244218 132.617923,281.147896 132.499398,281.147896" id="Fill-61" fill="#895837"></path>
                <polyline id="Stroke-63" stroke="#895837" stroke-width="0.5" stroke-linecap="round" points="208.814492 42.2683604 116.76069 42.2683604 116.76069 77.1937465"></polyline>
                <path d="M116.760733,76.9787202 C116.642208,76.9787202 116.546013,77.0750423 116.546013,77.193725 C116.546013,77.3124077 116.642208,77.4087298 116.760733,77.4087298 C116.879258,77.4087298 116.975452,77.3124077 116.975452,77.193725 C116.975452,77.0750423 116.879258,76.9787202 116.760733,76.9787202" id="Fill-64" fill="#895837"></path>
                <path d="M178.863988,115.86914 C178.745463,115.86914 178.649268,115.965462 178.649268,116.084144 C178.649268,116.202827 178.745463,116.299149 178.863988,116.299149 C178.982513,116.299149 179.078707,116.202827 179.078707,116.084144 C179.078707,115.965462 178.982513,115.86914 178.863988,115.86914" id="Fill-67" fill="#895837"></path>
                <path d="M189.40286,159.437376 C189.284335,159.437376 189.188141,159.533698 189.188141,159.652381 C189.188141,159.771064 189.284335,159.867386 189.40286,159.867386 C189.521385,159.867386 189.61758,159.771064 189.61758,159.652381 C189.61758,159.533698 189.521385,159.437376 189.40286,159.437376" id="Fill-70" fill="#895837"></path>
                <path d="M205.13313,179.646412 C205.014605,179.646412 204.91841,179.742734 204.91841,179.861417 C204.91841,179.9801 205.014605,180.076422 205.13313,180.076422 C205.251655,180.076422 205.347849,179.9801 205.347849,179.861417 C205.347849,179.742734 205.251655,179.646412 205.13313,179.646412" id="Fill-73" fill="#895837"></path>
                <g id="Group-131" transform="translate(63.000000, 49.150503)">
                    <path d="M101.052072,3.90191923 C100.977135,3.9272898 100.999037,3.99845641 100.999037,3.99845641 C100.999037,3.99845641 100.833918,4.11928913 100.159484,4.27882272 C99.4532728,4.34439919 99.3568638,4.56563917 99.3474162,4.57509938 C99.3379685,4.58412959 99.440819,4.70560732 99.6057234,4.87718118 C99.7706278,5.04811003 100.54512,6.25342716 100.54512,6.25342716 C100.579046,6.34996433 100.504324,6.6062501 100.504324,6.6062501 C100.504324,6.6062501 100.54512,6.64000586 100.55693,6.65871128 C100.569169,6.67784671 100.588494,6.72063268 100.588494,6.72063268 C100.626069,6.7702988 100.731282,6.8014745 100.731282,6.8014745 C100.762846,6.87027605 100.71711,6.86619095 100.658063,6.93735756 C100.599015,7.00959918 100.451932,7.19407333 100.395461,7.28781544 C100.336843,7.38542764 100.224759,7.24717953 100.252673,7.22524904 C100.280371,7.20374855 100.236783,7.17902299 100.159484,7.10097624 C100.081541,7.02271448 100.0751,7.02271448 99.8730489,7.1128015 C99.6707834,7.20374855 99.2014071,6.7081624 99.111225,6.63656579 C99.0210429,6.56496917 98.0223835,6.26933752 98.0223835,6.26933752 C97.9626916,6.30717837 97.7486165,6.52433326 97.5682523,6.65527121 C97.4439298,6.84877556 97.3320611,7.02873461 97.3320611,7.02873461 C97.3320611,7.02873461 97.2944852,7.05410518 97.3350671,6.97003829 C97.3754344,6.8859714 97.2543327,6.83308021 97.2543327,6.83308021 C97.4160163,6.63377072 97.4158016,6.43231119 97.5081309,6.23429173 C97.5813502,6.07690819 97.6629435,5.9752109 97.6766855,5.96682571 C97.7071756,5.94704527 98.0161567,5.77719144 98.0537325,5.7709563 C98.090879,5.76472116 98.1810611,5.85502319 98.1125656,5.72408525 C98.0440702,5.5931473 97.4997568,5.47811971 97.4997568,5.47811971 C97.037681,5.48607489 96.5668016,5.07907073 96.5513418,4.8647109 C96.8429306,5.28332533 97.2633509,5.04187489 97.4374882,5.09820616 C97.3954033,5.07176056 97.182187,4.91437702 96.9897986,4.7180776 C96.7282705,4.45168661 96.4684602,4.12380423 96.3894435,4.04876754 C96.2526673,3.91782959 96.3334017,3.93632001 96.3334017,3.93632001 C96.467816,3.94255515 97.0902872,4.66432639 97.5077014,4.73828806 C97.5478539,4.79010422 97.5907978,4.84428544 97.6172083,4.87417112 C97.6352447,4.89524159 99.5333631,6.93284245 99.8704723,6.94703277 L99.8764844,6.94703277 C99.9224344,6.97863848 99.9597955,7.00013897 99.9849177,7.00744913 C100.01734,7.01690935 100.013046,7.06614545 100.184177,6.84533548 C100.319665,6.67053655 100.386013,6.5795895 100.397179,6.50455281 C100.439478,6.43962135 100.471042,6.35662948 100.430675,6.27256259 C100.348223,6.0994837 98.5490899,4.19884092 98.2106923,4.04575747 C98.1705398,4.01823685 98.1396203,3.99458632 98.1140687,3.9758809 C98.0410641,3.92169968 98.0041324,3.89396405 97.9452993,3.88901894 C97.8853926,3.84429794 97.8108851,3.79592185 97.7599966,3.79183675 C97.7544139,3.7851716 97.7456104,3.77270132 97.7404571,3.76474615 C97.7170527,3.7314204 97.6820535,3.68067925 97.6234351,3.69207451 C97.6064723,3.69529958 97.5957363,3.68863443 97.5957363,3.68863443 L97.5850004,3.68024924 L97.5663198,3.67616415 C97.5648168,3.67573414 97.5639579,3.67508913 97.5628843,3.67444411 L97.5308911,3.6292931 L97.4999715,3.6292931 C97.4997568,3.6292931 97.4991127,3.62886309 97.4991127,3.62886309 C97.4765671,3.59553734 97.1362371,3.20164847 97.1766043,3.14811227 C97.2167568,3.09543608 96.9118555,2.76540365 97.0290922,2.72648778 C97.1463289,2.68864692 98.5729237,4.08596338 98.5729237,4.08596338 C98.5729237,4.08596338 98.5885983,4.00813162 98.557464,3.85848826 C98.5263297,3.70884489 98.1561536,3.49384005 98.1250193,3.46287935 C98.0943145,3.43191865 98.190294,3.42847858 98.2091893,3.44094886 C98.2278699,3.45384915 98.4236939,3.44438893 98.461055,3.45040907 C98.4986309,3.45664421 98.6693327,3.65251362 98.7099146,3.69981468 C98.7502819,3.74625573 98.7908638,3.97975098 98.8063236,4.08875844 C98.8217834,4.1981959 99.3379685,4.8647109 99.2729086,4.69937218 C99.2072045,4.53403346 99.2355474,4.38159503 99.2544427,4.40030045 C99.2729086,4.41879087 99.4532728,4.31322349 99.5206946,4.21862136 C99.5879017,4.12423424 100.022494,4.0425324 100.224759,4.06381788 C100.42681,4.08596338 101.126365,3.87719368 101.052072,3.90191923 M100.230771,6.52992338 C100.170865,6.58969473 100.096357,6.64968108 100.023782,6.70665736 C99.9666665,6.75223839 99.9123426,6.79523936 99.8700429,6.83523026 C99.6248335,6.8150198 97.9148092,5.04574498 97.7011635,4.80149948 C97.6416863,4.73312794 97.4907386,4.53231342 97.4898797,4.53166841 C97.4645429,4.49619261 97.4385618,4.45276163 97.4149427,4.41320074 C97.3747902,4.34654924 97.3490239,4.30419329 97.323687,4.28161778 C97.3011415,4.26140732 97.2979207,4.25065708 97.2940558,4.23668177 C97.2897614,4.22184643 97.2835345,4.19991594 97.2622773,4.17841546 L97.2420937,4.16551517 L97.2285664,4.16143007 C97.225775,4.16100006 97.2229837,4.16035505 97.2208365,4.15928003 C97.2204071,4.1536899 97.2208365,4.14229464 97.2229837,4.12315921 L97.2266339,4.0960686 L97.2073092,4.07628816 C97.1145505,3.98383608 97.120992,3.8737536 97.1216362,3.86966851 L97.1233539,3.84902804 L97.1111149,3.83247267 C97.1040292,3.82236744 97.0692447,3.77205631 97.0851339,3.75571594 C97.0973729,3.74346067 97.1257159,3.73722553 97.1373107,3.7359355 L97.2098858,3.73034537 L97.1851931,3.66154382 C97.1815429,3.6518686 97.1802546,3.64520345 97.1789662,3.64305341 C97.1918494,3.64004334 97.2180451,3.64305341 97.2225542,3.64240839 C97.2255603,3.64627848 97.2309283,3.65874876 97.2337197,3.66842398 L97.2463881,3.71056493 L97.2899761,3.70841488 C97.3069389,3.70776986 97.3440854,3.7049748 97.3728577,3.69658961 C97.3855262,3.70217974 97.4089306,3.71637006 97.4278259,3.73034537 L97.4424268,3.74109561 L97.4735611,3.74109561 L97.498898,3.77721643 L97.5394799,3.7851716 C97.5568722,3.79484682 97.5892948,3.80882214 97.6307356,3.80366202 C97.6361036,3.81054218 97.643404,3.82129242 97.6485573,3.82860258 C97.6713175,3.86128332 97.7022371,3.90643433 97.7518373,3.90299426 C97.7649351,3.9047143 97.7984313,3.92341972 97.8353631,3.94814527 L97.8424488,3.96577567 C97.8542583,3.99329629 97.8733684,3.99910142 97.9025702,4.00017644 L97.9029996,4.00017644 L97.9259746,4.00017644 C97.9575383,4.00017644 97.9710656,4.00856163 98.0475057,4.06553792 C98.0734867,4.08488835 98.1052652,4.10853888 98.1555095,4.14229464 C98.4754412,4.28849793 100.253317,6.15968505 100.330186,6.32050867 C100.338775,6.33921409 100.365615,6.39511535 100.230771,6.52992338 M102.97789,5.0244595 C102.97789,2.64908603 101.055079,0.724362711 98.6837189,0.724362711 C96.3123593,0.724362711 94.3891187,2.64908603 94.3891187,5.0244595 C94.3891187,7.39897295 96.3123593,9.32455629 98.6837189,9.32455629 C101.055079,9.32455629 102.97789,7.39897295 102.97789,5.0244595" id="Fill-77" fill="#8C6D58"></path>
                    <path d="M188.756113,158.626755 C188.637588,158.626755 188.541394,158.723077 188.541394,158.84176 C188.541394,158.960442 188.637588,159.056765 188.756113,159.056765 C188.874638,159.056765 188.970832,158.960442 188.970832,158.84176 C188.970832,158.723077 188.874638,158.626755 188.756113,158.626755" id="Fill-85" fill="#895837"></path>
                    <path d="M90.2787907,5.73909258 C90.2697725,5.76725822 90.0550532,5.7487678 89.9528468,5.7487678 C89.850211,5.7487678 89.7662558,5.57138881 89.7007664,5.62729007 C89.6357064,5.68319133 89.3655896,5.73909258 89.2537209,5.75822802 C89.1414227,5.77693344 89.0482345,5.67416112 89.0482345,5.67416112 L88.8247118,5.67416112 L88.8433923,5.72038716 C88.8618582,5.76725822 88.964494,5.85132511 88.9831746,5.90722637 C89.0016404,5.96312763 88.8902011,6.14996683 88.9269181,6.16845725 C88.964494,6.18759268 88.9363658,6.40216751 88.9458134,6.34626625 C88.9552611,6.28993498 89.216145,6.28090478 89.1880168,6.3084254 C89.160318,6.33680604 89.1132945,6.39249229 89.2348256,6.38346209 C89.3559272,6.37400188 89.4585631,6.18759268 89.4770289,6.23403372 C89.4957095,6.28090478 89.4398825,6.40216751 89.3808347,6.47655918 C89.3215722,6.55116586 89.1321898,6.78487612 89.0113028,6.77520091 C88.8902011,6.7661707 88.7965835,6.90613885 88.8247118,6.96204011 C88.8526253,7.01794137 89.3372467,6.92484427 89.3372467,6.92484427 C89.3372467,6.92484427 89.4957095,6.91516906 89.2069121,7.09297806 C88.9176852,7.27014205 88.5073567,7.09297806 88.5073567,7.09297806 C88.3491086,7.20456557 87.5290957,7.62511504 87.5290957,7.62511504 L87.5290957,8.19401784 L87.3455107,8.19401784 L87.3706329,7.65564572 L87.407994,6.69113401 C87.407994,6.69113401 86.8299697,6.0506346 86.6371518,5.87003053 C86.3824948,5.85756025 86.2205964,5.63976035 86.2205964,5.62105493 C86.2205964,5.60256451 86.2764234,5.40949017 86.0780228,5.40949017 C85.8791928,5.40949017 85.9038855,5.04269191 85.9038855,4.99861592 C85.9038855,4.95518494 86.0902618,4.94271466 86.1338498,4.92422424 C86.1772231,4.90551882 86.1463036,4.76899075 86.1587573,4.72491476 C86.171211,4.68148378 86.4009606,4.73738504 86.6742983,4.79952144 C86.9480653,4.86208784 87.0038923,4.81242173 87.0038923,4.81242173 L87.2774447,5.02398649 C87.2774447,5.02398649 87.3021374,5.2288861 87.376645,5.2598468 C87.4513673,5.29145251 87.5941556,5.31574806 87.5879288,5.35982405 C87.5817019,5.40325503 87.4017671,5.4778617 87.3390691,5.49011698 C87.2774447,5.50258726 87.3143764,5.63352521 87.2956958,5.73909258 C87.2774447,5.84508997 87.1593491,5.84508997 87.0223582,5.84508997 C86.8853673,5.84508997 86.7923939,5.55913353 86.7923939,5.63352521 C86.7923939,5.70791688 86.7238984,5.84508997 86.7238984,5.84508997 C86.7238984,5.84508997 87.4140061,6.53590052 87.4513673,6.56686122 C87.4885137,6.59803692 87.5692482,6.0506346 87.5692482,6.0506346 L87.6686632,5.13578901 L86.8980357,4.67524864 C86.8980357,4.67524864 86.7488058,4.55678097 86.6246981,4.60709211 C86.5005904,4.65675822 86.2832945,4.61934738 86.2083574,4.60085696 C86.1338498,4.58172153 85.8169242,4.87455813 85.7982436,4.87455813 C85.7793483,4.87455813 85.6988286,4.7932863 85.9101124,4.6380528 C86.1216108,4.4823893 86.0406617,4.37617691 86.0406617,4.37617691 C86.0406617,4.37617691 86.0035153,4.41401776 85.9101124,4.48840943 C85.8169242,4.56366113 85.7177239,4.61332725 85.6367747,4.43272318 C85.5560403,4.25211912 85.7112823,4.202453 85.7177239,4.15902202 C85.7233066,4.11494603 85.8358195,4.11494603 85.8358195,4.11494603 L85.8912171,4.02808407 L86.0035153,4.03431921 L86.0035153,3.96594767 L86.0902618,3.90381128 L86.0964887,3.81694932 C86.1029303,3.72901234 86.1896769,3.81028417 86.1896769,3.81028417 C86.1896769,3.81028417 86.2517307,4.08398533 86.2674052,4.00314351 C86.2832945,3.9225167 86.5501905,3.93498698 86.5501905,3.93498698 L86.5501905,3.79157875 C86.5501905,3.70407178 86.5501905,3.6606408 86.6809546,3.64193538 C86.8110744,3.62387497 86.904692,3.73567749 86.8299697,3.74191263 C86.7552474,3.74814777 86.6685008,3.91004642 86.7677011,3.92187168 C86.8671162,3.93498698 86.9542922,4.09624061 86.8980357,4.06527991 C86.841994,4.03431921 86.6184712,4.13343644 86.5811101,4.13988659 C86.5441784,4.14655174 86.7238984,4.27060953 86.7427937,4.31468552 C86.761689,4.3581165 86.7488058,4.50087971 86.7488058,4.50087971 L87.6997975,5.02398649 C87.6997975,5.02398649 87.7311465,4.9489498 87.7311465,4.89928368 C87.7311465,4.84961756 87.5692482,4.83736229 87.5069796,4.71867962 C87.4451404,4.60085696 87.8361442,4.5759164 87.8361442,4.5759164 C87.8361442,4.5759164 87.923535,4.43895832 87.8614811,4.4202529 C87.7992125,4.40154748 87.8488127,4.18374758 87.8488127,4.18374758 C87.8488127,4.18374758 87.9063574,4.17751244 87.9733498,4.00314351 C87.9050691,3.81028417 88.0044841,3.69504158 88.0044841,3.69504158 C88.0044841,3.69504158 87.5817019,3.33103838 87.4822869,3.06013229 C87.2306359,3.07926772 87.1748089,2.74300015 87.1748089,2.74300015 L86.9418385,2.76170557 C86.7086533,2.78019598 86.6341458,2.73353993 86.7086533,2.61270721 C86.7831609,2.49079947 87.1000866,2.48176927 86.9418385,2.44457343 C86.7831609,2.40716259 86.7552474,2.38867217 86.7644803,2.29493006 C86.773928,2.20183297 87.3332717,2.24805901 87.2956958,2.22053839 C87.2587641,2.19215775 87.3053582,1.97779792 87.3425046,1.96812271 C87.3800805,1.9590925 87.4264599,1.97779792 87.4264599,1.97779792 C87.4264599,1.97779792 87.4356928,1.91222145 87.5290957,1.88405581 C87.6220691,1.85653519 87.7060244,2.09906065 87.7242755,2.02466898 C87.7431708,1.94963229 87.9578901,1.97779792 87.8833825,2.03369918 C87.8086602,2.08960044 87.9110813,2.37899695 87.8926154,2.31363548 C87.8737201,2.24805901 87.9297618,2.15496191 87.9297618,2.08057024 C87.9297618,2.00596356 88.1163529,2.12679628 88.1069052,2.02466898 C88.0974576,1.92189667 88.1348187,1.87502561 88.1906458,1.85653519 C88.2464728,1.83782977 88.3306427,1.96812271 88.3306427,1.96812271 C88.3306427,1.96812271 88.3214098,2.19215775 88.3398756,2.28589986 C88.3585562,2.37899695 88.3214098,2.52864032 88.3214098,2.52864032 L88.3772368,2.5189651 C88.3772368,2.5189651 88.3682186,2.47209405 88.386255,2.35147633 C88.4051503,2.22956859 88.5449325,2.0521896 88.6288878,2.03369918 C88.7126283,2.01499376 88.7499895,2.08057024 88.7499895,2.17366733 C88.7499895,2.26719444 88.7036101,2.37899695 88.7036101,2.37899695 C88.7036101,2.37899695 88.7499895,2.36050654 88.8526253,2.3230957 C88.9552611,2.28589986 89.0390016,2.21086317 89.0482345,2.42586801 C89.0576822,2.64022783 88.9458134,2.67763868 88.9552611,2.73353993 C88.964494,2.7898712 88.9052315,2.92016414 88.9052315,2.92016414 C88.9052315,2.92016414 88.8994341,2.97671041 89.020321,3.02293645 C89.1414227,3.0698075 89.2814197,3.20977565 89.3280137,3.32136317 C89.3748225,3.4338107 89.160318,3.52690779 89.1789986,3.48068175 C89.1974644,3.4338107 88.8902011,3.38693964 88.9052315,3.41510528 C88.9211207,3.44348591 88.8526253,3.64881554 88.6102072,3.47100653 C88.3682186,3.29384255 88.3491086,3.48068175 88.3491086,3.48068175 L88.3398756,3.68601137 C88.3306427,3.89091098 88.0974576,4.05904477 88.0974576,4.05904477 L88.218774,4.05904477 C88.218774,4.05904477 89.1974644,3.94724225 89.160318,3.83500973 C89.1229568,3.72320721 89.5425183,3.46197633 89.5238377,3.38693964 C89.5049424,3.31254797 89.4025213,3.3407136 89.4866913,3.18204003 C89.5700024,3.02293645 89.6634052,3.12570876 89.6634052,3.12570876 C89.6634052,3.12570876 89.7941693,3.03261167 89.8126351,3.12570876 C89.8313157,3.21923587 89.7662558,3.32136317 89.7291093,3.37790944 C89.6915335,3.4338107 89.7291093,3.68601137 89.7754887,3.6206499 C89.8220828,3.55507343 89.9620797,3.47100653 89.9620797,3.47100653 L90.0084591,3.51787759 C90.0084591,3.51787759 89.7568081,3.74191263 89.906038,3.65784574 C90.0550532,3.57377885 90.0926291,3.65784574 90.0926291,3.65784574 C90.0926291,3.65784574 89.8594439,3.76061805 89.9528468,3.72320721 C90.0458203,3.68601137 90.1482414,3.77910847 90.0926291,3.77910847 C90.036802,3.77910847 90.0829667,3.84468494 90.0829667,3.84468494 L90.1110949,3.94444719 C90.1390084,4.04442444 90.0642861,4.19901292 90.0642861,4.19901292 C90.0642861,4.19901292 90.1482414,4.23620876 90.1390084,4.31124545 C90.1297755,4.38585213 89.9620797,4.3671467 89.9245039,4.28307981 C89.8873574,4.19901292 89.6634052,4.10591582 89.4585631,4.10591582 C89.2537209,4.10591582 89.2721867,3.97497788 89.1974644,3.94724225 C89.1229568,3.91907662 88.3959174,4.11494603 88.3959174,4.11494603 C88.3959174,4.11494603 88.4422967,4.12440624 88.4519591,4.16181708 C88.461192,4.19901292 88.2932816,4.44218339 88.3682186,4.33962608 C88.4422967,4.23620876 88.7317383,4.24588397 88.7317383,4.24588397 C88.7317383,4.24588397 88.7499895,4.34844128 88.7126283,4.57247633 C88.6756966,4.79672637 88.6102072,4.83392221 88.4983385,4.83392221 C88.386255,4.83392221 88.3682186,4.94615474 88.3682186,4.94615474 L88.6192254,5.02076142 C88.6192254,5.02076142 88.6849295,5.06741747 88.5822937,5.10181824 C88.4798726,5.13643402 88.3214098,5.02076142 88.2282216,5.04828204 C88.1348187,5.07644767 87.9763559,4.97389036 87.9205289,5.03022163 C87.8644872,5.08612289 87.7899796,5.78596364 87.7899796,5.78596364 C87.8801617,5.70297177 88.6920153,5.62341998 89.0113028,5.57138881 C89.0870987,5.55913353 89.160318,5.48732192 89.160318,5.48732192 C89.160318,5.48732192 89.0763627,5.48732192 89.0950433,5.40325503 C89.1132945,5.31918813 89.5049424,5.31015793 89.5517512,5.31015793 C89.5983453,5.31015793 89.6075782,5.13234893 89.6075782,5.05795725 C89.6075782,4.98335057 89.719447,4.89928368 89.8313157,4.89928368 C89.9433992,4.89928368 90.1297755,4.92701931 90.101862,4.97389036 C90.0737338,5.02076142 90.2324113,5.29145251 90.2324113,5.29145251 C90.2787907,5.33789355 90.2880236,5.71135696 90.2787907,5.73909258 M92.241969,5.0246315 C92.241969,2.64925804 90.3193726,0.72431971 87.9477983,0.72431971 C85.5760092,0.72431971 83.6531981,2.64925804 83.6531981,5.0246315 C83.6531981,7.39935995 85.5760092,9.32429828 87.9477983,9.32429828 C90.3193726,9.32429828 92.241969,7.39935995 92.241969,5.0246315" id="Fill-91" fill="#8C6D58"></path>
                    <path d="M111.778352,6.67309511 C111.778352,6.67309511 111.579093,6.60644361 111.534646,6.62858911 C111.490414,6.6505196 111.431366,6.66169985 111.4056,6.65847478 C111.4056,6.65847478 111.070208,6.79156277 110.99248,6.82101844 C110.915181,6.85025909 109.914589,6.93561602 109.631159,6.9169106 C109.347515,6.89820517 108.709584,6.70233577 108.539741,6.59913344 C108.370113,6.49593112 108.052973,6.35144787 107.953558,6.32930237 C107.854143,6.30737188 107.197531,5.90509782 107.090386,5.57592541 C106.983456,5.24761302 107.024038,4.9225257 107.237898,4.80061796 C107.258726,4.78814768 107.261303,4.73805155 107.261303,4.73805155 C107.261303,4.73805155 107.944754,4.92016065 108.293888,5.20590208 C108.293888,5.20590208 108.542318,5.52926936 108.913568,5.69288804 C109.285032,5.85693674 109.897197,5.86553693 110.310102,6.14590324 C110.730307,6.3260773 111.272903,6.53656703 111.465936,6.48582589 C111.465936,6.48582589 111.715225,6.49184603 111.778352,6.56236761 C111.840836,6.63245919 111.778352,6.67309511 111.778352,6.67309511 M108.172571,3.13927557 C108.172571,3.13927557 108.308059,3.28139377 108.339623,3.29730412 C108.371187,3.31364449 109.090496,3.61486627 109.21396,3.73978408 C109.400766,3.84685649 109.633092,3.84857653 110.053727,4.3938288 C110.053727,4.3938288 110.203386,4.48520586 110.332433,4.48972096 C110.461908,4.49359105 111.112937,4.72450625 111.195604,5.17085629 L111.286216,5.26911351 C111.286216,5.26911351 111.211708,5.30738437 111.147078,5.43445223 C111.083091,5.56087507 110.751565,5.93713354 110.038053,5.68428785 C109.633092,5.47379811 109.661005,5.34802028 109.574688,5.28308882 C109.574688,5.28308882 109.104883,5.08119928 108.884795,4.80964816 C108.664493,4.53809705 108.677806,4.39834391 108.557993,4.22397498 C108.438179,4.04939105 108.284655,3.76837973 108.244932,3.60433103 L108.192326,3.30805437 L108.090549,3.20420703 C108.090549,3.20420703 108.087972,3.09691961 108.172571,3.13927557 M113.714046,5.02400799 C113.714046,2.64949454 111.791235,0.724556216 109.419661,0.724556216 C107.048087,0.724556216 105.125276,2.64949454 105.125276,5.02400799 C105.125276,7.39938145 107.048087,9.32431978 109.419661,9.32431978 C111.791235,9.32431978 113.714046,7.39938145 113.714046,5.02400799" id="Fill-93" fill="#8C6D58"></path>
                    <path d="M132.761793,6.31831562 C132.584864,6.77713595 132.233798,7.05599723 132.111623,7.12307874 C131.990307,7.19080526 131.745312,7.39785492 131.579334,7.41441029 C131.413356,7.43010565 131.021708,7.6100647 130.811713,7.5745889 C130.601717,7.53954311 130.279638,7.56620371 129.825078,7.10566334 C129.371376,6.646198 129.448889,5.76532317 129.447172,5.50559733 C129.445883,5.24608649 129.055309,4.39660237 128.94752,3.94079211 C128.94752,3.94079211 128.868503,3.4383258 129.023531,3.16698969 C129.133037,2.97520537 129.236103,2.8876984 129.302666,2.84254739 C129.331223,2.82319695 129.35248,2.8120167 129.365793,2.8029865 C129.410884,2.77310082 129.080861,2.58841167 129.353983,2.4920895 C129.627536,2.39555233 129.524685,2.63936781 129.559685,2.72902483 C129.639131,2.72794981 129.694314,2.71956462 129.761735,2.72235968 C129.710203,2.72558476 130.883644,4.39896742 131.040818,4.58301156 C131.198422,4.76748572 132.303797,5.47635667 132.081348,6.75069035 C132.081348,6.75069035 132.453456,5.71565706 131.781385,5.02420149 C131.545194,4.78038601 131.267776,4.66535842 130.987782,4.33511098 C130.4731,3.72793732 129.862868,2.71784458 129.76195,2.72235968 C129.852132,2.72558476 129.96486,2.74816026 130.189671,2.83222716 C130.566074,3.04852202 130.803339,3.51529753 131.381792,4.1805225 C131.381792,4.1805225 131.615622,4.4159528 131.938774,4.51915513 C132.261497,4.62235745 132.606766,5.0644074 132.71842,5.30198775 C132.830503,5.54064312 132.938722,5.85842027 132.761793,6.31831562 M135.185759,5.02420149 C135.185759,2.64947304 133.263163,0.724534715 130.891588,0.724534715 C128.519799,0.724534715 126.596988,2.64947304 126.596988,5.02420149 C126.596988,7.39957496 128.519799,9.32472829 130.891588,9.32472829 C133.263163,9.32472829 135.185759,7.39957496 135.185759,5.02420149" id="Fill-94" fill="#8C6D58"></path>
                    <path d="M143.740411,6.04465746 C143.740411,6.04465746 141.453006,6.80706462 141.143381,6.98250857 C140.968385,7.21621883 140.692471,7.08012077 140.692471,7.08012077 C140.540879,7.0682955 139.514521,7.48884497 139.514521,7.48884497 L139.514521,7.2901805 C139.514521,7.2901805 140.429869,6.89349657 140.500082,6.81716985 C140.55183,6.76126859 140.829676,6.16269512 140.992219,5.78385659 C140.622043,5.64001835 140.342264,5.49102 140.284504,5.53273094 C140.161899,5.62023791 140.138495,5.07735069 140.156102,4.97242833 C140.17328,4.86686095 140.068282,4.81439977 139.829514,4.72065766 C139.590317,4.62756057 139.736111,4.51081294 139.636696,4.44631149 C139.537711,4.38267005 139.613721,4.12530926 139.613721,4.12530926 C139.565839,4.01350674 139.54544,3.84924305 139.58366,3.72239019 C139.645929,3.51125544 139.805895,3.35430191 139.805895,3.35430191 C139.805895,3.35430191 140.068282,3.30184073 140.202696,3.06813047 C140.27248,2.79958942 140.855872,2.56028903 140.855872,2.56028903 C140.855872,2.56028903 140.83805,2.65962127 141.112247,2.6652114 C141.386443,2.67144654 141.462025,2.72971285 141.473834,2.7939993 C141.485644,2.85828574 141.56144,2.99825389 141.627788,2.89892166 C141.693492,2.79958942 141.771435,2.75271837 141.841434,2.74153811 C141.911432,2.72971285 141.911432,2.74153811 141.929039,2.78217403 C141.946431,2.82323995 142.121213,2.77034876 142.260995,2.78217403 C142.401207,2.7939993 142.529609,2.9808385 142.529609,2.9808385 C142.698593,3.14445718 142.733592,3.2962506 142.715985,3.48867993 C142.990182,3.41880336 143.374959,3.66412388 143.374959,3.66412388 C143.374959,3.66412388 143.294654,3.67938922 143.497563,4.16594518 C143.835746,4.97801845 143.491551,5.12422174 143.153368,5.52090567 C142.815186,5.91823462 142.389397,5.97628592 142.389397,5.97628592 C142.01235,6.07841322 141.586562,5.98983123 141.215956,5.86512842 C141.117186,6.17495039 140.982342,6.72235272 140.988139,6.76083858 C140.995869,6.81544981 143.740411,5.91199948 143.740411,5.91199948 L143.740411,6.04465746 Z M145.921744,5.02488951 C145.921744,2.64951604 143.999362,0.724362711 141.627573,0.724362711 C139.255784,0.724362711 137.332973,2.64951604 137.332973,5.02488951 C137.332973,7.39961796 139.255784,9.32455629 141.627573,9.32455629 C143.999362,9.32455629 145.921744,7.39961796 145.921744,5.02488951 L145.921744,5.02488951 Z" id="Fill-95" fill="#8C6D58"></path>
                    <path d="M150.808797,184.958419 C150.690272,184.958419 150.594078,185.054741 150.594078,185.173424 C150.594078,185.292107 150.690272,185.388429 150.808797,185.388429 C150.927323,185.388429 151.023517,185.292107 151.023517,185.173424 C151.023517,185.054741 150.927323,184.958419 150.808797,184.958419" id="Fill-97" fill="#895837"></path>
                    <path d="M143.686731,319.039608 C143.686731,319.039608 141.399327,319.802015 141.089701,319.977459 C140.914705,320.211169 140.638791,320.075071 140.638791,320.075071 C140.487199,320.063246 139.460841,320.483795 139.460841,320.483795 L139.460841,320.285131 C139.460841,320.285131 140.376189,319.888447 140.446403,319.81212 C140.49815,319.756219 140.775997,319.157646 140.938539,318.778807 C140.568363,318.634969 140.288584,318.48597 140.230824,318.527681 C140.10822,318.615188 140.084815,318.072301 140.102422,317.967379 C140.1196,317.861811 140.014602,317.80935 139.775834,317.715608 C139.536637,317.622511 139.682431,317.505763 139.583016,317.441262 C139.484031,317.377621 139.560041,317.12026 139.560041,317.12026 C139.512159,317.008457 139.491761,316.844194 139.529981,316.717341 C139.592249,316.506206 139.752215,316.349252 139.752215,316.349252 C139.752215,316.349252 140.014602,316.296791 140.149016,316.063081 C140.2188,315.79454 140.802192,315.55524 140.802192,315.55524 C140.802192,315.55524 140.784371,315.654572 141.058567,315.660162 C141.332764,315.666397 141.408345,315.724663 141.420154,315.78895 C141.431964,315.853236 141.50776,315.993204 141.574108,315.893872 C141.639812,315.79454 141.717755,315.747669 141.787754,315.736489 C141.857752,315.724663 141.857752,315.736489 141.875359,315.777125 C141.892752,315.81819 142.067533,315.765299 142.207315,315.777125 C142.347527,315.78895 142.475929,315.975789 142.475929,315.975789 C142.644913,316.139408 142.679912,316.291201 142.662305,316.48363 C142.936502,316.413754 143.321279,316.659074 143.321279,316.659074 C143.321279,316.659074 143.240974,316.67434 143.443884,317.160896 C143.782066,317.972969 143.437871,318.119172 143.099689,318.515856 C142.761506,318.913185 142.335717,318.971236 142.335717,318.971236 C141.95867,319.073364 141.532882,318.984782 141.162277,318.860079 C141.063506,319.169901 140.928662,319.717303 140.934459,319.755789 C140.942189,319.8104 143.686731,318.90695 143.686731,318.90695 L143.686731,319.039608 Z M145.868064,318.01984 C145.868064,315.644467 143.945682,313.719313 141.573893,313.719313 C139.202104,313.719313 137.279293,315.644467 137.279293,318.01984 C137.279293,320.394568 139.202104,322.319507 141.573893,322.319507 C143.945682,322.319507 145.868064,320.394568 145.868064,318.01984 L145.868064,318.01984 Z" id="Fill-99" fill="#8C6D58"></path>
                    <path d="M121.632185,5.25055859 C121.563689,5.25055859 121.508506,5.19465733 121.508506,5.12628579 C121.508506,5.05812926 121.563689,5.00287301 121.632185,5.00287301 C121.700465,5.00287301 121.755648,5.05812926 121.755648,5.12628579 C121.755648,5.19465733 121.700465,5.25055859 121.632185,5.25055859 M121.508506,5.74614474 C121.508506,5.67712819 121.563689,5.62187195 121.632185,5.62187195 C121.700465,5.62187195 121.755648,5.67712819 121.755648,5.74614474 C121.755648,5.81430128 121.700465,5.86955752 121.632185,5.86955752 C121.563689,5.86955752 121.508506,5.81430128 121.508506,5.74614474 M121.408662,6.0998277 C121.449244,6.04457146 121.526543,6.03339121 121.581726,6.07338211 C121.636694,6.11401802 121.648503,6.19184978 121.608136,6.24667601 C121.567554,6.30193225 121.490255,6.31375752 121.434858,6.27269159 C121.380319,6.23248569 121.367865,6.15465394 121.408662,6.0998277 M121.384828,5.44535297 C121.384828,5.37633642 121.440011,5.32108018 121.508506,5.32108018 C121.576572,5.32108018 121.632185,5.37633642 121.632185,5.44535297 C121.632185,5.51350951 121.576572,5.56876575 121.508506,5.56876575 C121.440011,5.56876575 121.384828,5.51350951 121.384828,5.44535297 M121.148852,5.86955752 C121.148852,5.80140099 121.204679,5.74614474 121.272959,5.74614474 C121.341025,5.74614474 121.396638,5.80140099 121.396638,5.86955752 C121.396638,5.93792906 121.341025,5.9931853 121.272959,5.9931853 C121.204679,5.9931853 121.148852,5.93792906 121.148852,5.86955752 M121.147134,6.42104493 C121.078638,6.42104493 121.023455,6.36578869 121.023455,6.29677214 C121.023455,6.2286156 121.078638,6.17335936 121.147134,6.17335936 C121.215414,6.17335936 121.270812,6.2286156 121.270812,6.29677214 C121.270812,6.36578869 121.215414,6.42104493 121.147134,6.42104493 M120.996186,6.58294358 C121.028823,6.52317223 121.10419,6.50124174 121.163882,6.53392247 C121.223789,6.56660321 121.245905,6.6416399 121.213053,6.70205626 C121.180201,6.7618276 121.105264,6.7839731 121.045572,6.75107736 C120.98545,6.71839663 120.963119,6.64271492 120.996186,6.58294358 M120.964622,5.56876575 C120.964622,5.50060922 121.02002,5.44535297 121.088301,5.44535297 C121.156581,5.44535297 121.211979,5.50060922 121.211979,5.56876575 C121.211979,5.63713729 121.156581,5.69239353 121.088301,5.69239353 C121.02002,5.69239353 120.964622,5.63713729 120.964622,5.56876575 M120.760639,5.91642858 C120.760639,5.84827204 120.816037,5.79280079 120.884317,5.79280079 C120.952813,5.79280079 121.007781,5.84827204 121.007781,5.91642858 C121.007781,5.98480011 120.952813,6.04070137 120.884317,6.04070137 C120.816037,6.04070137 120.760639,5.98480011 120.760639,5.91642858 M120.884317,6.77773796 C120.884317,6.8458945 120.828705,6.90136575 120.760639,6.90136575 C120.692144,6.90136575 120.636961,6.8458945 120.636961,6.77773796 C120.636961,6.70936642 120.692144,6.65346517 120.760639,6.65346517 C120.828705,6.65346517 120.884317,6.70936642 120.884317,6.77773796 M120.760639,6.42104493 C120.692144,6.42104493 120.636961,6.36578869 120.636961,6.29677214 C120.636961,6.2286156 120.692144,6.17335936 120.760639,6.17335936 C120.828705,6.17335936 120.884317,6.2286156 120.884317,6.29677214 C120.884317,6.36578869 120.828705,6.42104493 120.760639,6.42104493 M122.307047,6.19077475 C122.302538,6.35890854 121.909387,7.08863496 121.582584,7.32277523 C121.255996,7.55756052 121.211764,7.46059333 120.995113,7.57519091 C120.778675,7.6902185 120.562238,7.6902185 120.562238,7.6902185 C120.473989,7.6857034 120.473989,7.6857034 120.390034,7.60615161 C120.274944,7.60615161 120.200007,7.47800872 120.200007,7.47800872 C120.173597,7.45156313 119.95716,7.01811337 119.939338,6.96049208 C119.921731,6.90308578 119.72333,6.61110921 119.72333,5.98695016 C119.72333,5.25722374 120.712327,4.57673342 120.960113,4.43504523 C121.207255,4.29335704 121.304523,4.07663217 121.538352,3.99708037 C121.772182,3.91752858 121.83445,3.99708037 121.856137,4.03664127 C121.869449,4.05986179 121.894357,4.10544281 121.912608,4.13941358 C121.833377,4.11232297 121.586235,4.07168705 121.198237,4.42106992 C120.743462,4.83065414 120.458744,4.91708608 120.141818,5.32839034 C120.141818,5.32839034 119.83799,5.92954387 120.023293,6.62873961 C120.208811,7.32729033 120.297275,7.54014512 120.385525,7.54014512 C120.395831,7.54014512 120.404635,7.54057513 120.411935,7.54229517 C119.927743,6.60379905 119.878143,5.85902228 120.213105,5.32624029 C120.433192,4.97685743 120.61098,4.87989025 121.134251,4.58339857 C121.39127,4.22068541 121.821782,4.16198909 121.920123,4.15338889 C121.929141,4.17101929 121.936012,4.18284456 121.936012,4.18284456 C121.936012,4.18284456 121.772182,4.6691855 121.617798,4.77539789 C121.463415,4.88139528 120.518006,5.62918211 120.49589,6.45609072 C120.473989,7.28342934 120.482792,7.24773854 120.482792,7.24773854 C120.482792,7.24773854 121.26437,6.95146187 121.55188,6.42943012 C121.693809,6.17099431 121.841751,5.92223371 121.887271,5.62466701 C121.93408,5.32108018 121.904878,5.06328937 121.838745,4.85946479 C121.772182,4.6556402 122.001931,4.17316934 122.054967,4.1714493 C122.23576,4.16585917 122.148155,4.15618396 122.307047,4.24498095 C122.46594,4.33291793 122.439529,5.13832606 122.439529,5.13832606 C122.497074,5.37246633 122.364592,6.02307098 122.307047,6.19077475 M119.621553,6.17765946 C119.621553,6.17765946 119.484562,6.28838695 119.210581,6.29677214 C119.210581,6.29677214 118.698046,6.18174455 118.380261,5.88159779 C118.062262,5.58059102 117.735245,5.16713671 117.90337,4.16069906 C117.90337,4.16069906 118.027907,3.55868551 118.430935,3.2295131 C118.430935,3.2295131 118.724886,2.94463169 118.737984,2.91345598 C118.751296,2.88249529 118.949911,2.44732549 119.082608,2.42259994 C119.237206,2.37357883 119.15776,2.33401794 119.647964,2.37809393 C119.647964,2.37809393 119.928602,2.44453043 120.009336,2.59911891 C120.089641,2.7543524 120.133874,2.89152549 120.142677,2.98849267 C120.151481,3.08631987 120.332489,3.30239974 120.43856,3.65221261 C120.544417,4.00159548 120.588649,4.54577272 120.575336,4.57673342 C120.562238,4.60769412 119.81115,5.12069567 119.691981,5.64681251 C119.572812,6.17335936 119.621553,6.17765946 119.621553,6.17765946 M124.449946,5.02480351 C124.449946,2.64943004 122.527135,0.724491714 120.15556,0.724491714 C117.783986,0.724491714 115.861175,2.64943004 115.861175,5.02480351 C115.861175,7.39953196 117.783986,9.32468529 120.15556,9.32468529 C122.527135,9.32468529 124.449946,7.39953196 124.449946,5.02480351" id="Fill-100" fill="#8C6D58"></path>
                    <path d="M163.36266,132.294532 C163.244135,132.294532 163.147941,132.390854 163.147941,132.509536 C163.147941,132.628219 163.244135,132.724541 163.36266,132.724541 C163.481185,132.724541 163.57738,132.628219 163.57738,132.509536 C163.57738,132.390854 163.481185,132.294532 163.36266,132.294532" id="Fill-107" fill="#895837"></path>
                    <path d="M186.60892,225.041406 C186.490395,225.041406 186.394201,225.137728 186.394201,225.256411 C186.394201,225.375093 186.490395,225.471415 186.60892,225.471415 C186.727445,225.471415 186.823639,225.375093 186.823639,225.256411 C186.823639,225.137728 186.727445,225.041406 186.60892,225.041406" id="Fill-112" fill="#895837"></path>
                    <path d="M158.676197,237.622285 C158.557672,237.622285 158.461478,237.718607 158.461478,237.83729 C158.461478,237.955972 158.557672,238.052295 158.676197,238.052295 C158.794723,238.052295 158.890917,237.955972 158.890917,237.83729 C158.890917,237.718607 158.794723,237.622285 158.676197,237.622285" id="Fill-116" fill="#895837"></path>
                    <path d="M17.4854791,188.039374 C17.4854791,188.039374 15.1980747,188.801781 14.8884495,188.977225 C14.7134533,189.210935 14.4375391,189.074837 14.4375391,189.074837 C14.2859473,189.063012 13.2595892,189.483561 13.2595892,189.483561 L13.2595892,189.284897 C13.2595892,189.284897 14.1749374,188.888213 14.2451506,188.811886 C14.296898,188.755985 14.5747447,188.157412 14.7372872,187.778573 C14.3671112,187.634735 14.0873319,187.485736 14.0295725,187.527447 C13.9069678,187.614954 13.8835634,187.072067 13.9011703,186.967145 C13.9183479,186.861577 13.8133502,186.809116 13.5745823,186.715374 C13.3353851,186.622277 13.4811794,186.505529 13.3817644,186.441028 C13.2827788,186.377386 13.3587895,186.120026 13.3587895,186.120026 C13.3109071,186.008223 13.2905087,185.843959 13.3287288,185.717107 C13.3909973,185.505972 13.5509632,185.349018 13.5509632,185.349018 C13.5509632,185.349018 13.8133502,185.296557 13.9477644,185.062847 C14.0175482,184.794306 14.6009404,184.555005 14.6009404,184.555005 C14.6009404,184.555005 14.5831187,184.654338 14.8573153,184.659928 C15.1315118,184.666163 15.2070929,184.724429 15.2189025,184.788716 C15.2307121,184.853002 15.306508,184.99297 15.3728562,184.893638 C15.4385603,184.794306 15.5165034,184.747435 15.5865019,184.736255 C15.6565004,184.724429 15.6565004,184.736255 15.6741074,184.77689 C15.6914996,184.817956 15.8662811,184.765065 16.0060634,184.77689 C16.146275,184.788716 16.2746772,184.975555 16.2746772,184.975555 C16.4436612,185.139174 16.4786605,185.290967 16.4610535,185.483396 C16.73525,185.41352 17.1200269,185.65884 17.1200269,185.65884 C17.1200269,185.65884 17.0397219,185.674106 17.2426316,186.160662 C17.5808145,186.972735 17.2366195,187.118938 16.8984366,187.515622 C16.5602538,187.912951 16.1344655,187.971002 16.1344655,187.971002 C15.7574184,188.07313 15.3316301,187.984548 14.9610247,187.859845 C14.8622538,188.169667 14.7274101,188.717069 14.7332075,188.755555 C14.7409374,188.810166 17.4854791,187.906716 17.4854791,187.906716 L17.4854791,188.039374 Z M19.6668122,187.019606 C19.6668122,184.644232 17.7444306,182.719079 15.3726415,182.719079 C13.0008524,182.719079 11.0780414,184.644232 11.0780414,187.019606 C11.0780414,189.394334 13.0008524,191.319273 15.3726415,191.319273 C17.7444306,191.319273 19.6668122,189.394334 19.6668122,187.019606 L19.6668122,187.019606 Z" id="Fill-120" fill="#8C6D58"></path>
                    <path d="M56.134948,159.472476 C56.134948,159.472476 53.8475436,160.234884 53.5379184,160.410327 C53.3629222,160.644038 53.087008,160.50794 53.087008,160.50794 C52.9354162,160.496114 51.909058,160.916664 51.909058,160.916664 L51.909058,160.717999 C51.909058,160.717999 52.8244063,160.321315 52.8946195,160.244989 C52.9463668,160.189087 53.2242136,159.590514 53.3867561,159.211675 C53.01658,159.067837 52.7368008,158.918839 52.6790414,158.96055 C52.5564366,159.048057 52.5330322,158.50517 52.5506392,158.400247 C52.5678168,158.29468 52.462819,158.242219 52.2240512,158.148477 C51.9848539,158.055379 52.1306483,157.938632 52.0312333,157.87413 C51.9322477,157.810489 52.0082583,157.553128 52.0082583,157.553128 C51.9603759,157.441326 51.9399776,157.277062 51.9781976,157.150209 C52.0404662,156.939074 52.2004321,156.782121 52.2004321,156.782121 C52.2004321,156.782121 52.462819,156.72966 52.5972333,156.495949 C52.6670171,156.227408 53.2504093,155.988108 53.2504093,155.988108 C53.2504093,155.988108 53.2325876,156.08744 53.5067841,156.09303 C53.7809807,156.099265 53.8565618,156.157532 53.8683714,156.221818 C53.880181,156.286105 53.9559769,156.426073 54.0223251,156.326741 C54.0880292,156.227408 54.1659723,156.180537 54.2359708,156.169357 C54.3059693,156.157532 54.3059693,156.169357 54.3235763,156.209993 C54.3409685,156.251059 54.51575,156.198168 54.6555322,156.209993 C54.7957439,156.221818 54.9241461,156.408657 54.9241461,156.408657 C55.0931301,156.572276 55.1281294,156.72407 55.1105224,156.916499 C55.3847189,156.846622 55.7694958,157.091943 55.7694958,157.091943 C55.7694958,157.091943 55.6891908,157.107208 55.8921005,157.593764 C56.2302834,158.405837 55.8860884,158.552041 55.5479055,158.948725 C55.2097227,159.346054 54.7839344,159.404105 54.7839344,159.404105 C54.4068873,159.506232 53.981099,159.41765 53.6104936,159.292947 C53.5117227,159.602769 53.376879,160.150172 53.3826764,160.188657 C53.3904063,160.243269 56.134948,159.339818 56.134948,159.339818 L56.134948,159.472476 Z M58.3162811,158.452708 C58.3162811,156.077335 56.3938995,154.152182 54.0221104,154.152182 C51.6503213,154.152182 49.7275102,156.077335 49.7275102,158.452708 C49.7275102,160.827437 51.6503213,162.752375 54.0221104,162.752375 C56.3938995,162.752375 58.3162811,160.827437 58.3162811,158.452708 L58.3162811,158.452708 Z" id="Fill-121" fill="#8C6D58"></path>
                    <path d="M7.55896426,188.668134 C7.55896426,188.668134 7.35970478,188.601483 7.31525789,188.623628 C7.27102572,188.645558 7.21197792,188.656739 7.18621161,188.653514 C7.18621161,188.653514 6.85082011,188.786602 6.77309173,188.816057 C6.69579279,188.845298 5.69520099,188.930655 5.41177155,188.911949 C5.12812739,188.893244 4.49019643,188.697375 4.32035349,188.594172 C4.15072527,188.49097 3.8335849,188.346487 3.73416988,188.324341 C3.63475486,188.302411 2.97814332,187.900137 2.87099841,187.570964 C2.76406821,187.242652 2.80465015,186.917565 3.01851055,186.795657 C3.03933832,186.783187 3.04191495,186.73309 3.04191495,186.73309 C3.04191495,186.73309 3.72536639,186.9152 4.07449992,187.200941 C4.07449992,187.200941 4.32293012,187.524308 4.69417974,187.687927 C5.06564408,187.851976 5.67780873,187.860576 6.0909286,188.140942 C6.5109195,188.321116 7.0535151,188.531606 7.24654772,188.480865 C7.24654772,188.480865 7.4958368,188.486885 7.55896426,188.557407 C7.62144757,188.627498 7.55896426,188.668134 7.55896426,188.668134 M3.95318354,185.134314 C3.95318354,185.134314 4.0886714,185.276433 4.12023513,185.292343 C4.15179886,185.308683 4.87132314,185.609905 4.994572,185.734823 C5.18137777,185.841895 5.41370402,185.843615 5.83433907,186.388868 C5.83433907,186.388868 5.98399841,186.480245 6.11304469,186.48476 C6.24252041,186.48863 6.89354924,186.719545 6.97621616,187.165895 L7.06704241,187.264152 C7.06704241,187.264152 6.99232011,187.302423 6.92768961,187.429491 C6.86370326,187.555699 6.53217671,187.932172 5.81866457,187.679327 C5.41370402,187.468837 5.44161753,187.343059 5.35530038,187.278128 C5.35530038,187.278128 4.88549461,187.076238 4.66540736,186.804687 C4.44510539,186.533136 4.45841798,186.393383 4.33860463,186.219014 C4.21879127,186.04443 4.065267,185.763419 4.02554393,185.59937 L3.97293771,185.303093 L3.87116077,185.199246 C3.87116077,185.199246 3.86858414,185.091959 3.95318354,185.134314 M9.4946585,187.019047 C9.4946585,184.644318 7.57184742,182.719595 5.20027307,182.719595 C2.82869871,182.719595 0.905887633,184.644318 0.905887633,187.019047 C0.905887633,189.39442 2.82869871,191.319359 5.20027307,191.319359 C7.57184742,191.319359 9.4946585,189.39442 9.4946585,187.019047" id="Fill-122" fill="#8C6D58"></path>
                    <path d="M7.00503149,214.053089 C6.93009446,214.078459 6.95199583,214.149626 6.95199583,214.149626 C6.95199583,214.149626 6.78687671,214.270459 6.11244347,214.429992 C5.40623179,214.495569 5.30982284,214.716809 5.30037519,214.726269 C5.29092754,214.735299 5.39377807,214.856777 5.55868247,215.028136 C5.72358687,215.19928 6.49807929,216.404597 6.49807929,216.404597 C6.53200493,216.501134 6.45728263,216.75742 6.45728263,216.75742 C6.45728263,216.75742 6.49807929,216.791176 6.50988885,216.809881 C6.52212785,216.829016 6.54145258,216.871802 6.54145258,216.871802 C6.57902845,216.921468 6.6842409,216.952644 6.6842409,216.952644 C6.71601935,217.021446 6.67006942,217.017576 6.61102162,217.088527 C6.55197382,217.160769 6.40489112,217.345243 6.34841995,217.438985 C6.28980159,217.536597 6.17771813,217.398349 6.20563164,217.376419 C6.23333042,217.354918 6.18995713,217.330193 6.11244347,217.252146 C6.03450038,217.173884 6.0280588,217.173884 5.82600797,217.264186 C5.62374241,217.354918 5.15436608,216.859332 5.06418399,216.787735 C4.9740019,216.716139 3.97534256,216.420507 3.97534256,216.420507 C3.91565061,216.458348 3.70157549,216.675503 3.52121131,216.806441 C3.39688885,216.999945 3.28502011,217.179904 3.28502011,217.179904 C3.28502011,217.179904 3.24744423,217.205275 3.28802618,217.121208 C3.3283934,217.037141 3.20729173,216.98425 3.20729173,216.98425 C3.36897534,216.78494 3.36876062,216.583481 3.46108991,216.385461 C3.53430918,216.228078 3.6159025,216.126381 3.62964454,216.117995 C3.66013467,216.098215 3.96911571,215.928361 4.00669158,215.922126 C4.04383801,215.915891 4.13402011,216.006193 4.06552466,215.875255 C3.99702921,215.744317 3.45271586,215.629289 3.45271586,215.629289 C2.99063998,215.637245 2.51976062,215.23024 2.50430083,215.015881 C2.79588961,215.434495 3.21630994,215.193045 3.39044727,215.249376 C3.34836229,215.22293 3.13514605,215.065547 2.94275759,214.869032 C2.68122951,214.602856 2.4214192,214.274974 2.3424025,214.199937 C2.20562633,214.068999 2.28636077,214.08749 2.28636077,214.08749 C2.42077504,214.093725 3.04324621,214.815496 3.46066047,214.889458 C3.50081297,214.941274 3.54375683,214.995455 3.5701673,215.025341 C3.58820372,215.046196 5.48632208,217.084012 5.82343134,217.098202 L5.82944347,217.098202 C5.8753934,217.129808 5.91275455,217.151309 5.93787671,217.158619 C5.97029932,217.168079 5.96621965,217.217315 6.13713619,216.996505 C6.27262405,216.821706 6.33897231,216.730759 6.35013771,216.655722 C6.39243741,216.590791 6.42400114,216.507799 6.38363392,216.423732 C6.30118171,216.250653 4.50204894,214.350011 4.16365137,214.196927 C4.12349886,214.169406 4.09257929,214.145756 4.06702769,214.127051 C3.99402314,214.072869 3.95709143,214.045134 3.89825835,214.040189 C3.83835167,213.995468 3.76384408,213.947091 3.71295561,213.943006 C3.70737291,213.936341 3.69878414,213.923871 3.69341616,213.915916 C3.67001176,213.88259 3.63501252,213.831849 3.57639416,213.843244 C3.55943134,213.846469 3.54869537,213.839804 3.54869537,213.839804 L3.53795941,213.831419 L3.51927883,213.827334 C3.5177758,213.826904 3.51691692,213.826259 3.51584332,213.825614 L3.48385015,213.780463 L3.45293058,213.780463 C3.45271586,213.780463 3.4520717,213.780033 3.4520717,213.780033 C3.42952618,213.746707 3.08919613,213.352818 3.12956335,213.299282 C3.16971586,213.246606 2.86481449,212.916573 2.98205121,212.877657 C3.09928794,212.839817 4.52588278,214.237133 4.52588278,214.237133 C4.52588278,214.237133 4.54155728,214.159086 4.51042299,214.009658 C4.47928869,213.860015 4.10911267,213.64501 4.07797838,213.614049 C4.04727352,213.583088 4.14325303,213.579648 4.16214833,213.592119 C4.18082891,213.605019 4.37665288,213.595559 4.41401404,213.601579 C4.45158991,213.607814 4.62229173,213.803683 4.66287367,213.850984 C4.7032409,213.897425 4.74382284,214.130921 4.75928263,214.239928 C4.77474241,214.349366 5.29092754,215.015881 5.2258676,214.850542 C5.16016351,214.685203 5.18850645,214.532765 5.20740175,214.55147 C5.2258676,214.569961 5.40623179,214.464608 5.47365364,214.369576 C5.54086077,214.275404 5.97545258,214.193702 6.17771813,214.214988 C6.37976897,214.237133 7.07932436,214.028363 7.00503149,214.053089 M6.18373027,216.681093 C6.1238236,216.740864 6.04931601,216.800851 5.9767409,216.857827 C5.91962557,216.903408 5.86530159,216.946409 5.8230019,216.9864 C5.57779249,216.966189 3.86776821,215.196915 3.65412253,214.952669 C3.5946453,214.884298 3.44369765,214.683483 3.44283877,214.682838 C3.4175019,214.647362 3.39152086,214.603931 3.36790175,214.56437 C3.32774924,214.497719 3.30198293,214.455578 3.27664605,214.433002 C3.25410053,214.412577 3.25087974,214.401827 3.2470148,214.387636 C3.24272041,214.373016 3.23649355,214.351086 3.21523634,214.329585 L3.19505273,214.316685 L3.18152542,214.3126 C3.17873407,214.31217 3.17594272,214.311525 3.17379552,214.31045 C3.17336608,214.30486 3.17379552,214.293464 3.17594272,214.274329 L3.17959294,214.247238 L3.16026821,214.227458 C3.06750948,214.135006 3.07395106,214.024923 3.07459522,214.021053 L3.07631297,213.999983 L3.06407398,213.983642 C3.05698824,213.973537 3.02220372,213.923226 3.03809294,213.906886 C3.05033194,213.89463 3.07867489,213.888395 3.09026973,213.887105 L3.16284484,213.881515 L3.13815212,213.812713 C3.1345019,213.803038 3.13321358,213.796373 3.13192527,213.794008 C3.14480842,213.791213 3.17100417,213.794008 3.17551328,213.793578 C3.17851935,213.797448 3.18388733,213.809918 3.18667868,213.819594 L3.19934712,213.861735 L3.24314985,213.859585 C3.25989795,213.85894 3.29704439,213.856144 3.32581677,213.847759 C3.3384852,213.853349 3.36188961,213.86754 3.3807849,213.881515 L3.39538581,213.892265 L3.42652011,213.892265 L3.45185698,213.928386 L3.49243892,213.936341 C3.50983118,213.946016 3.54225379,213.959992 3.58369461,213.954832 C3.58906259,213.961712 3.59636305,213.972462 3.60151631,213.979772 C3.62427656,214.012453 3.65519613,214.057604 3.70479628,214.054164 C3.71789416,214.055884 3.75139036,214.074589 3.78832208,214.099315 L3.79540781,214.116945 C3.80721737,214.144466 3.82632739,214.150271 3.85552921,214.151346 L3.85595865,214.151346 L3.87893361,214.151346 C3.91049734,214.151346 3.92402466,214.159731 4.00046472,214.216708 C4.02644575,214.236058 4.0582242,214.259709 4.10846851,214.293464 C4.42840023,214.439668 6.2062758,216.310855 6.2831453,216.471678 C6.29194879,216.490384 6.31857398,216.546285 6.18373027,216.681093 M8.93106335,215.175629 C8.93106335,212.800256 7.00803756,210.875532 4.63667792,210.875532 C2.26531829,210.875532 0.342292489,212.800256 0.342292489,215.175629 C0.342292489,217.550143 2.26531829,219.475726 4.63667792,219.475726 C7.00803756,219.475726 8.93106335,217.550143 8.93106335,215.175629" id="Fill-123" fill="#8C6D58"></path>
                    <path d="M27.6578046,216.410617 C27.6578046,216.410617 25.3704002,217.173024 25.060775,217.348468 C24.8857788,217.582178 24.6098646,217.44608 24.6098646,217.44608 C24.4582728,217.434255 23.4319146,217.854804 23.4319146,217.854804 L23.4319146,217.65614 C23.4319146,217.65614 24.3472629,217.259456 24.4174761,217.183129 C24.4692234,217.127228 24.7470702,216.528655 24.9096127,216.149816 C24.5394366,216.005978 24.2596574,215.856979 24.201898,215.89869 C24.0792932,215.986197 24.0558888,215.44331 24.0734958,215.338388 C24.0906734,215.23282 23.9856756,215.180359 23.7469078,215.086617 C23.5077105,214.99352 23.6535049,214.876772 23.5540899,214.812271 C23.4551043,214.74863 23.5311149,214.491269 23.5311149,214.491269 C23.4832325,214.379466 23.4628342,214.215203 23.5010542,214.08835 C23.5633228,213.877215 23.7232887,213.720261 23.7232887,213.720261 C23.7232887,213.720261 23.9856756,213.6678 24.1200899,213.43409 C24.1898737,213.165549 24.7732659,212.926249 24.7732659,212.926249 C24.7732659,212.926249 24.7554442,213.025581 25.0296407,213.031171 C25.3038373,213.037406 25.3794184,213.095672 25.391228,213.159959 C25.4030376,213.224245 25.4788335,213.364213 25.5451817,213.264881 C25.6108858,213.165549 25.6888289,213.118678 25.7588274,213.107498 C25.8288259,213.095672 25.8288259,213.107498 25.8464329,213.148134 C25.8638251,213.189199 26.0386066,213.136308 26.1783888,213.148134 C26.3186005,213.159959 26.4470027,213.346798 26.4470027,213.346798 C26.6159867,213.510417 26.650986,213.66221 26.633379,213.854639 C26.9075755,213.784763 27.2923524,214.030083 27.2923524,214.030083 C27.2923524,214.030083 27.2120474,214.045349 27.4149571,214.531905 C27.75314,215.343978 27.408945,215.490181 27.0707621,215.886865 C26.7325793,216.284194 26.306791,216.342245 26.306791,216.342245 C25.9297439,216.444373 25.5039556,216.355791 25.1333502,216.231088 C25.0345793,216.54091 24.8997356,217.088312 24.905533,217.126798 C24.9132629,217.181409 27.6578046,216.277959 27.6578046,216.277959 L27.6578046,216.410617 Z M29.8391377,215.390849 C29.8391377,213.015476 27.9167561,211.090322 25.544967,211.090322 C23.1731779,211.090322 21.2503668,213.015476 21.2503668,215.390849 C21.2503668,217.765577 23.1731779,219.690516 25.544967,219.690516 C27.9167561,219.690516 29.8391377,217.765577 29.8391377,215.390849 L29.8391377,215.390849 Z" id="Fill-124" fill="#8C6D58"></path>
                    <path d="M17.7312898,217.039442 C17.7312898,217.039442 17.5320303,216.97279 17.4875834,216.994936 C17.4433512,217.016866 17.3843034,217.028046 17.3585371,217.024821 C17.3585371,217.024821 17.0231456,217.157909 16.9454172,217.187365 C16.8681183,217.216606 15.8675265,217.301963 15.584097,217.283257 C15.3004529,217.264552 14.6625219,217.068682 14.492679,216.96548 C14.3230508,216.862278 14.0059104,216.717794 13.9064954,216.695649 C13.8070803,216.673718 13.1504688,216.271444 13.0433239,215.942272 C12.9363937,215.61396 12.9769756,215.288872 13.190836,215.166964 C13.2116638,215.154494 13.2142404,215.104398 13.2142404,215.104398 C13.2142404,215.104398 13.8976919,215.286507 14.2468254,215.572249 C14.2468254,215.572249 14.4952556,215.895616 14.8665052,216.059235 C15.2379696,216.223283 15.8501342,216.231883 16.2632541,216.51225 C16.683245,216.692424 17.2258406,216.902914 17.4188732,216.852172 C17.4188732,216.852172 17.6681623,216.858193 17.7312898,216.928714 C17.7937731,216.998806 17.7312898,217.039442 17.7312898,217.039442 M14.125509,213.505622 C14.125509,213.505622 14.2609969,213.64774 14.2925606,213.663651 C14.3241244,213.679991 15.0436486,213.981213 15.1668975,214.106131 C15.3537033,214.213203 15.5860295,214.214923 16.0066646,214.760175 C16.0066646,214.760175 16.1563239,214.851552 16.2853702,214.856067 C16.4148459,214.859938 17.0658747,215.090853 17.1485417,215.537203 L17.2393679,215.63546 C17.2393679,215.63546 17.1646456,215.673731 17.1000151,215.800799 C17.0360288,215.927007 16.7045022,216.30348 15.9909901,216.050634 C15.5860295,215.840145 15.613943,215.714367 15.5276259,215.649435 C15.5276259,215.649435 15.0578201,215.447546 14.8377329,215.175995 C14.6174309,214.904444 14.6307435,214.76469 14.5109301,214.590321 C14.3911168,214.415738 14.2375925,214.134726 14.1978694,213.970678 L14.1452632,213.674401 L14.0434863,213.570554 C14.0434863,213.570554 14.0409096,213.463266 14.125509,213.505622 M19.666984,215.390354 C19.666984,213.015626 17.7441729,211.090903 15.3725986,211.090903 C13.0010242,211.090903 11.0782131,213.015626 11.0782131,215.390354 C11.0782131,217.765728 13.0010242,219.690666 15.3725986,219.690666 C17.7441729,219.690666 19.666984,217.765728 19.666984,215.390354" id="Fill-125" fill="#8C6D58"></path>
                    <path d="M133.760216,319.66839 C133.760216,319.66839 133.560957,319.601738 133.51651,319.623884 C133.472278,319.645814 133.41323,319.656994 133.387464,319.653769 C133.387464,319.653769 133.052072,319.786857 132.974344,319.816313 C132.897045,319.845554 131.896453,319.930911 131.613023,319.912205 C131.329594,319.8935 130.691448,319.69763 130.521605,319.594428 C130.351977,319.491226 130.034837,319.346742 129.935422,319.324597 C129.836007,319.302666 129.179395,318.900392 129.07225,318.57122 C128.96532,318.242908 129.005902,317.91782 129.219762,317.795912 C129.24059,317.783442 129.243167,317.733346 129.243167,317.733346 C129.243167,317.733346 129.926618,317.915455 130.275967,318.201197 C130.275967,318.201197 130.524182,318.524564 130.895432,318.688183 C131.266896,318.852231 131.879061,318.860831 132.292181,319.141198 C132.712171,319.321372 133.254767,319.531862 133.4478,319.48112 C133.4478,319.48112 133.697089,319.487141 133.760216,319.557662 C133.822699,319.627754 133.760216,319.66839 133.760216,319.66839 M130.154435,316.13457 C130.154435,316.13457 130.289923,316.276688 130.321487,316.292599 C130.353051,316.308939 131.072575,316.610161 131.195824,316.735079 C131.38263,316.842151 131.614956,316.843871 132.035591,317.389123 C132.035591,317.389123 132.18525,317.4805 132.314297,317.485015 C132.443772,317.488886 133.094801,317.719801 133.177468,318.166151 L133.268294,318.264408 C133.268294,318.264408 133.193572,318.302679 133.128942,318.429747 C133.064955,318.555955 132.733429,318.932428 132.019916,318.679582 C131.614956,318.469093 131.642869,318.343315 131.556552,318.278383 C131.556552,318.278383 131.086747,318.076494 130.866659,317.804943 C130.646357,317.533392 130.65967,317.393638 130.539857,317.219269 C130.420043,317.044686 130.266519,316.763674 130.226796,316.599626 L130.17419,316.303349 L130.072413,316.199502 C130.072413,316.199502 130.069836,316.092214 130.154435,316.13457 M135.69591,318.019302 C135.69591,315.644574 133.773099,313.719851 131.40174,313.719851 C129.029951,313.719851 127.10714,315.644574 127.10714,318.019302 C127.10714,320.394676 129.029951,322.319614 131.40174,322.319614 C133.773099,322.319614 135.69591,320.394676 135.69591,318.019302" id="Fill-126" fill="#8C6D58"></path>
                    <path d="M133.823601,281.561125 C133.748664,281.586496 133.770566,281.657663 133.770566,281.657663 C133.770566,281.657663 133.605447,281.778495 132.931013,281.938029 C132.224802,282.003605 132.128393,282.224845 132.118945,282.234306 C132.109497,282.243336 132.212348,282.364813 132.377252,282.536172 C132.542157,282.707316 133.316649,283.912633 133.316649,283.912633 C133.350575,284.00917 133.275852,284.265456 133.275852,284.265456 C133.275852,284.265456 133.316649,284.299212 133.328459,284.317917 C133.340698,284.337053 133.360022,284.379839 133.360022,284.379839 C133.397598,284.429505 133.503025,284.460681 133.503025,284.460681 C133.534589,284.529482 133.488639,284.525612 133.429591,284.596564 C133.370544,284.668805 133.223461,284.853279 133.16699,284.947022 C133.108371,285.044634 132.996288,284.906386 133.024201,284.884455 C133.0519,284.862955 133.008527,284.838229 132.931013,284.760182 C132.85307,284.681921 132.846629,284.681921 132.644578,284.772223 C132.442312,284.862955 131.972936,284.367369 131.882754,284.295772 C131.792572,284.224175 130.793912,283.928544 130.793912,283.928544 C130.73422,283.966385 130.520145,284.183539 130.339781,284.314477 C130.215459,284.507982 130.10359,284.687941 130.10359,284.687941 C130.10359,284.687941 130.066014,284.713311 130.106811,284.629244 C130.146963,284.545178 130.025862,284.492286 130.025862,284.492286 C130.187545,284.292977 130.18733,284.091517 130.27966,283.893498 C130.352879,283.736114 130.434472,283.634417 130.448214,283.626032 C130.478704,283.606251 130.787686,283.436398 130.825261,283.430162 C130.862408,283.423927 130.95259,283.514229 130.884094,283.383291 C130.815599,283.252353 130.271286,283.137326 130.271286,283.137326 C129.80921,283.145281 129.33833,282.738277 129.322871,282.523917 C129.614459,282.942531 130.03488,282.701081 130.209017,282.757412 C130.166932,282.730967 129.953716,282.573583 129.761327,282.377069 C129.499799,282.110893 129.239989,281.78301 129.160972,281.707974 C129.024196,281.577036 129.104931,281.595526 129.104931,281.595526 C129.239345,281.601761 129.861816,282.323533 130.27923,282.397494 C130.319383,282.44931 130.362327,282.503492 130.388737,282.533377 C130.406774,282.554233 132.304892,284.592049 132.642001,284.606239 L132.648013,284.606239 C132.693963,284.637845 132.731539,284.659345 132.756447,284.666655 C132.788869,284.676115 132.784789,284.725352 132.955706,284.504542 C133.091194,284.329743 133.157542,284.238796 133.168708,284.163759 C133.211007,284.098827 133.242571,284.015836 133.202204,283.931769 C133.119752,283.75869 131.320619,281.858047 130.982221,281.704964 C130.942069,281.677443 130.911149,281.653792 130.885597,281.635087 C130.812593,281.580906 130.775661,281.55317 130.716828,281.548225 C130.657136,281.503504 130.582414,281.455128 130.531525,281.451043 C130.525943,281.444378 130.517354,281.431907 130.511986,281.423952 C130.488582,281.390627 130.453582,281.339885 130.394964,281.351281 C130.378001,281.354506 130.367265,281.347841 130.367265,281.347841 L130.356529,281.339455 L130.337849,281.33537 C130.336346,281.33494 130.335487,281.334295 130.334413,281.33365 L130.302635,281.288499 L130.2715,281.288499 C130.271286,281.288499 130.270642,281.288069 130.270642,281.288069 C130.248096,281.254743 129.907766,280.860855 129.948133,280.807318 C129.988286,280.754642 129.683384,280.42461 129.800621,280.385694 C129.917858,280.347853 131.344453,281.74517 131.344453,281.74517 C131.344453,281.74517 131.360127,281.667123 131.328993,281.517694 C131.297858,281.368051 130.927682,281.153046 130.896548,281.122085 C130.865843,281.091125 130.961823,281.087685 130.980718,281.100155 C130.999399,281.113055 131.195223,281.103595 131.232584,281.109615 C131.27016,281.11585 131.440862,281.31172 131.481443,281.359021 C131.521811,281.405462 131.562393,281.638957 131.577852,281.747965 C131.593312,281.857402 132.109497,282.523917 132.044437,282.358578 C131.978733,282.19324 132.007076,282.040801 132.025972,282.059507 C132.044437,282.077997 132.224802,281.972645 132.292223,281.877612 C132.359431,281.78344 132.794022,281.701739 132.996288,281.723024 C133.198339,281.74517 133.897894,281.5364 133.823601,281.561125 M133.0023,284.18913 C132.942393,284.248901 132.867886,284.308887 132.795311,284.365864 C132.738195,284.411445 132.683871,284.454445 132.641572,284.494436 C132.396362,284.474226 130.686338,282.704951 130.472692,282.460706 C130.413215,282.392334 130.262267,282.19152 130.261409,282.190875 C130.236072,282.155399 130.210091,282.111968 130.186472,282.072407 C130.146534,282.005755 130.120553,281.963614 130.095216,281.941039 C130.07267,281.920613 130.06945,281.909863 130.065585,281.895673 C130.06129,281.881053 130.055063,281.859122 130.033806,281.837622 L130.013837,281.824721 L130.000095,281.820636 C129.997304,281.820206 129.994513,281.819561 129.992365,281.818486 C129.991936,281.812896 129.992365,281.801501 129.994513,281.782365 L129.998163,281.755275 L129.978838,281.735494 C129.886079,281.643042 129.892521,281.53296 129.893165,281.52909 L129.894883,281.508019 L129.882644,281.491679 C129.875558,281.481574 129.840774,281.431262 129.856663,281.414922 C129.868902,281.402667 129.897245,281.396432 129.90884,281.395142 L129.981415,281.389552 L129.956722,281.32075 C129.953072,281.311075 129.951783,281.30441 129.950495,281.302045 C129.963378,281.299249 129.989574,281.302045 129.994083,281.301615 C129.997089,281.305485 130.002457,281.317955 130.005248,281.32763 L130.017917,281.369771 L130.06172,281.367621 C130.078468,281.366976 130.115829,281.364181 130.144387,281.355796 C130.157055,281.361386 130.180459,281.375576 130.199355,281.389552 L130.213956,281.400302 L130.24509,281.400302 L130.270427,281.436423 L130.311009,281.444378 C130.328401,281.454053 130.360824,281.468028 130.402264,281.462868 C130.407632,281.469748 130.414933,281.480499 130.420086,281.487809 C130.442846,281.520489 130.473766,281.56564 130.523366,281.5622 C130.536464,281.56392 130.56996,281.582626 130.606892,281.607351 L130.613978,281.624982 C130.625787,281.652502 130.644897,281.658308 130.674099,281.659383 L130.674528,281.659383 L130.697503,281.659383 C130.729067,281.659383 130.742594,281.667768 130.819035,281.724744 C130.845016,281.744094 130.876794,281.767745 130.927038,281.801501 C131.24697,281.947704 133.024846,283.818891 133.101715,283.979715 C133.110519,283.99842 133.137144,284.054321 133.0023,284.18913 M135.749633,282.683666 C135.749633,280.308292 133.826607,278.383569 131.455248,278.383569 C129.083888,278.383569 127.160862,280.308292 127.160862,282.683666 C127.160862,285.058179 129.083888,286.983762 131.455248,286.983762 C133.826607,286.983762 135.749633,285.058179 135.749633,282.683666" id="Fill-127" fill="#8C6D58"></path>
                    <path d="M143.986221,284.332452 C143.986221,284.332452 143.786962,284.2658 143.742515,284.287946 C143.698283,284.309876 143.639235,284.321056 143.613469,284.317831 C143.613469,284.317831 143.278077,284.450919 143.200349,284.480375 C143.12305,284.509616 142.122458,284.594973 141.839029,284.576267 C141.555599,284.557562 140.917454,284.361692 140.747611,284.25849 C140.577982,284.155288 140.260842,284.010805 140.161427,283.988659 C140.062012,283.966729 139.405401,283.564454 139.298256,283.235282 C139.191325,282.90697 139.231907,282.581882 139.445768,282.459975 C139.466596,282.447504 139.469172,282.397408 139.469172,282.397408 C139.469172,282.397408 140.152624,282.579517 140.501972,282.865259 C140.501972,282.865259 140.750187,283.188626 141.121437,283.352245 C141.492901,283.516293 142.105066,283.524894 142.518186,283.80526 C142.938177,283.985434 143.480772,284.195924 143.673805,284.145183 C143.673805,284.145183 143.923094,284.151203 143.986221,284.221724 C144.048705,284.291816 143.986221,284.332452 143.986221,284.332452 M140.380441,280.798632 C140.380441,280.798632 140.515929,280.94075 140.547492,280.956661 C140.579056,280.973001 141.29858,281.274223 141.421829,281.399141 C141.608635,281.506213 141.840961,281.507933 142.261596,282.053185 C142.261596,282.053185 142.411256,282.144563 142.540302,282.149078 C142.669778,282.152948 143.320806,282.383863 143.403473,282.830213 L143.4943,282.92847 C143.4943,282.92847 143.419577,282.966741 143.354947,283.093809 C143.29096,283.220017 142.959434,283.59649 142.245922,283.343644 C141.840961,283.133155 141.868875,283.007377 141.782558,282.942445 C141.782558,282.942445 141.312752,282.740556 141.092665,282.469005 C140.872363,282.197454 140.885675,282.057701 140.765862,281.883332 C140.646048,281.708748 140.492524,281.427736 140.452801,281.263688 L140.400195,280.967411 L140.298418,280.863564 C140.298418,280.863564 140.295841,280.756276 140.380441,280.798632 M145.921916,282.683365 C145.921916,280.308636 143.999105,278.383913 141.627745,278.383913 C139.255956,278.383913 137.333145,280.308636 137.333145,282.683365 C137.333145,285.058738 139.255956,286.983676 141.627745,286.983676 C143.999105,286.983676 145.921916,285.058738 145.921916,282.683365" id="Fill-128" fill="#8C6D58"></path>
                    <path d="M31.6880424,258.232305 C31.6880424,258.232305 31.4887829,258.165653 31.444336,258.187799 C31.4001039,258.209729 31.3410561,258.22091 31.3152898,258.217684 C31.3152898,258.217684 30.9798983,258.350772 30.9021699,258.380228 C30.8248709,258.409469 29.8242791,258.494826 29.5408497,258.47612 C29.2572055,258.457415 28.6192746,258.261545 28.4494316,258.158343 C28.2798034,258.055141 27.9626631,257.910658 27.863248,257.888512 C27.763833,257.866582 27.1072215,257.464307 27.0000766,257.135135 C26.8931464,256.806823 26.9337283,256.481735 27.1475887,256.359828 C27.1684165,256.347357 27.1709931,256.297261 27.1709931,256.297261 C27.1709931,256.297261 27.8544445,256.47937 28.2035781,256.765112 C28.2035781,256.765112 28.4520083,257.088479 28.8232579,257.252098 C29.1947222,257.416146 29.8068869,257.424747 30.2200068,257.705113 C30.6399976,257.885287 31.1825932,258.095777 31.3756259,258.045036 C31.3756259,258.045036 31.6249149,258.051056 31.6880424,258.121577 C31.7505257,258.191669 31.6880424,258.232305 31.6880424,258.232305 M28.0822617,254.698485 C28.0822617,254.698485 28.2177495,254.840603 28.2493133,254.856514 C28.280877,254.872854 29.0004013,255.174076 29.1236502,255.298994 C29.3104559,255.406066 29.5427822,255.407786 29.9634172,255.953038 C29.9634172,255.953038 30.1130766,256.044416 30.2421228,256.048931 C30.3715986,256.052801 31.0226274,256.283716 31.1052943,256.730066 L31.1961206,256.828323 C31.1961206,256.828323 31.1213983,256.866594 31.0567678,256.993662 C30.9927814,257.11987 30.6612549,257.496343 29.9477427,257.243498 C29.5427822,257.033008 29.5706957,256.90723 29.4843785,256.842298 C29.4843785,256.842298 29.0145728,256.640409 28.7944855,256.368858 C28.5741835,256.097307 28.5874961,255.957554 28.4676828,255.783185 C28.3478694,255.608601 28.1943451,255.327589 28.1546221,255.163541 L28.1020159,254.867264 L28.0002389,254.763417 C28.0002389,254.763417 27.9976623,254.656129 28.0822617,254.698485 M33.6237366,256.583218 C33.6237366,254.208489 31.7009256,252.283766 29.3293512,252.283766 C26.9577769,252.283766 25.0349658,254.208489 25.0349658,256.583218 C25.0349658,258.958591 26.9577769,260.883529 29.3293512,260.883529 C31.7009256,260.883529 33.6237366,258.958591 33.6237366,256.583218" id="Fill-129" fill="#8C6D58"></path>
                    <path d="M7.21004545,245.767937 C7.21004545,245.767937 7.01078596,245.701285 6.96633907,245.723431 C6.9221069,245.745361 6.8630591,245.756541 6.83729279,245.753316 C6.83729279,245.753316 6.50190129,245.886404 6.42417291,245.91586 C6.34687398,245.945101 5.34628217,246.030458 5.06285273,246.011752 C4.77920857,245.993047 4.14127762,245.797177 3.97143467,245.693975 C3.80180645,245.590773 3.48466608,245.446289 3.38525106,245.424144 C3.28583604,245.402213 2.62922451,244.999939 2.52207959,244.670767 C2.41514939,244.342455 2.45573134,244.017367 2.66959173,243.89546 C2.6904195,243.882989 2.69299613,243.832893 2.69299613,243.832893 C2.69299613,243.832893 3.37644757,244.015002 3.72558111,244.300744 C3.72558111,244.300744 3.97401131,244.624111 4.34526093,244.78773 C4.71672527,244.951778 5.32888991,244.960379 5.74200979,245.240745 C6.16200068,245.420919 6.70459628,245.631409 6.89762891,245.580668 C6.89762891,245.580668 7.14691798,245.586688 7.21004545,245.657209 C7.27252876,245.727301 7.21004545,245.767937 7.21004545,245.767937 M3.60426472,242.234117 C3.60426472,242.234117 3.73975258,242.376235 3.77131631,242.392146 C3.80288005,242.408486 4.52240432,242.709708 4.64565319,242.834626 C4.83245895,242.941698 5.0647852,242.943418 5.48542026,243.48867 C5.48542026,243.48867 5.63507959,243.580047 5.76412587,243.584563 C5.89360159,243.588433 6.54463042,243.819348 6.62729734,244.265698 L6.7181236,244.363955 C6.7181236,244.363955 6.64340129,244.402226 6.57877079,244.529294 C6.51478445,244.655502 6.18325789,245.031975 5.46974575,244.779129 C5.0647852,244.56864 5.09269871,244.442862 5.00638156,244.37793 C5.00638156,244.37793 4.5365758,244.176041 4.31648854,243.90449 C4.09618657,243.632939 4.10949917,243.493186 3.98968581,243.318817 C3.86987246,243.144233 3.71634818,242.863221 3.67662511,242.699173 L3.62401889,242.402896 L3.52224196,242.299049 C3.52224196,242.299049 3.51966533,242.191761 3.60426472,242.234117 M9.14573968,244.11885 C9.14573968,241.744121 7.2229286,239.819398 4.85135425,239.819398 C2.47977989,239.819398 0.556968816,241.744121 0.556968816,244.11885 C0.556968816,246.494223 2.47977989,248.419161 4.85135425,248.419161 C7.2229286,248.419161 9.14573968,246.494223 9.14573968,244.11885" id="Fill-130" fill="#8C6D58"></path>
                    <path d="M133.206283,40.7623489 C133.131346,40.7877195 133.153248,40.8588861 133.153248,40.8588861 C133.153248,40.8588861 132.988129,40.9797188 132.313695,41.1392524 C131.607484,41.2048289 131.511075,41.4260688 131.501627,41.4355291 C131.492179,41.4445593 131.59503,41.566037 131.759934,41.7376109 C131.924839,41.9085397 132.699331,43.1138568 132.699331,43.1138568 C132.733257,43.210394 132.658535,43.4666798 132.658535,43.4666798 C132.658535,43.4666798 132.699331,43.5004355 132.711141,43.5191409 C132.72338,43.5382764 132.742704,43.5810623 132.742704,43.5810623 C132.78028,43.6307285 132.885708,43.6619042 132.885708,43.6619042 C132.917271,43.7307057 132.871321,43.7266206 132.812274,43.7977872 C132.753226,43.8700288 132.606143,44.054503 132.549672,44.1482451 C132.491053,44.2458573 132.37897,44.1076092 132.406884,44.0856787 C132.434582,44.0641782 132.391209,44.0394527 132.313695,43.9614059 C132.235752,43.8831441 132.229311,43.8831441 132.02726,43.9732312 C131.824994,44.0641782 131.355618,43.5685921 131.265436,43.4969955 C131.175254,43.4253988 130.176594,43.1297672 130.176594,43.1297672 C130.116903,43.167608 129.902827,43.3847629 129.722463,43.5157009 C129.598141,43.7092052 129.486272,43.8891643 129.486272,43.8891643 C129.486272,43.8891643 129.448911,43.9145348 129.489493,43.830468 C129.529645,43.7464011 129.408544,43.6935099 129.408544,43.6935099 C129.570227,43.4942004 129.570013,43.2927409 129.662342,43.0947214 C129.735561,42.9373379 129.817154,42.8356406 129.830896,42.8272554 C129.861387,42.8074749 130.170368,42.6376211 130.207943,42.631386 C130.24509,42.6251508 130.335272,42.7154529 130.266777,42.5845149 C130.198281,42.453577 129.653968,42.3385494 129.653968,42.3385494 C129.191892,42.3465046 128.721013,41.9395004 128.705553,41.7251406 C128.997142,42.143755 129.417562,41.9023046 129.591699,41.9586358 C129.549614,41.9321902 129.336398,41.7748067 129.144009,41.5785073 C128.882481,41.3121163 128.622671,40.9842339 128.543654,40.9091972 C128.406878,40.7782593 128.487613,40.7967497 128.487613,40.7967497 C128.622027,40.8029848 129.244498,41.5247561 129.661912,41.5987177 C129.702065,41.6505339 129.745009,41.7047151 129.771419,41.7346008 C129.789456,41.7556713 131.687574,43.7932721 132.024683,43.8074624 L132.030695,43.8074624 C132.076645,43.8390682 132.114221,43.8605686 132.139129,43.8678788 C132.171551,43.877339 132.167472,43.9265751 132.338388,43.7057652 C132.473876,43.5309662 132.540224,43.4400192 132.55139,43.3649825 C132.593689,43.300051 132.625253,43.2170592 132.584886,43.1329923 C132.502434,42.9599134 130.703301,41.0592706 130.364903,40.9061871 C130.324751,40.8786665 130.293831,40.855016 130.26828,40.8363106 C130.195275,40.7821293 130.158343,40.7543937 130.09951,40.7494486 C130.039818,40.7047276 129.965096,40.6563515 129.914208,40.6522664 C129.908625,40.6456013 129.900036,40.633131 129.894668,40.6251758 C129.871264,40.5918501 129.836264,40.5411089 129.777646,40.5525042 C129.760683,40.5557292 129.749947,40.5490641 129.749947,40.5490641 L129.739211,40.5406789 L129.720531,40.5365938 C129.719028,40.5361638 129.718169,40.5355188 129.717095,40.5348738 L129.685317,40.4897228 L129.654182,40.4897228 C129.653968,40.4897228 129.653324,40.4892928 129.653324,40.4892928 C129.630778,40.455967 129.290448,40.0620781 129.330815,40.0085419 C129.370968,39.9558657 129.066066,39.6258333 129.183303,39.5869174 C129.30054,39.5490766 130.727135,40.946393 130.727135,40.946393 C130.727135,40.946393 130.742809,40.8685613 130.711675,40.7189179 C130.680541,40.5692746 130.310365,40.3542697 130.27923,40.323309 C130.248525,40.2923483 130.344505,40.2889082 130.3634,40.3013785 C130.382081,40.3142788 130.577905,40.3048186 130.615266,40.3108387 C130.652842,40.3170739 130.823544,40.5129433 130.864126,40.5602443 C130.904493,40.6066854 130.945075,40.8401807 130.960535,40.9491881 C130.975994,41.0586256 131.492179,41.7251406 131.427119,41.5598018 C131.361415,41.3944631 131.389758,41.2420247 131.408654,41.2607301 C131.427119,41.2792205 131.607484,41.1736532 131.674906,41.079051 C131.742113,40.9846639 132.176704,40.9029621 132.37897,40.9242475 C132.581021,40.946393 133.280576,40.7376233 133.206283,40.7623489 M132.384982,43.3903531 C132.325075,43.4501244 132.250568,43.5101107 132.177993,43.567087 C132.120877,43.6126681 132.066553,43.655669 132.024254,43.6956599 C131.779044,43.6754495 130.06902,41.9061746 129.855374,41.6619291 C129.795897,41.5935576 129.64495,41.3927431 129.644091,41.3920981 C129.618754,41.3566223 129.592773,41.3131913 129.569154,41.2736304 C129.529216,41.2069789 129.503235,41.164623 129.477898,41.1420474 C129.455352,41.121837 129.452132,41.1110867 129.448267,41.0971114 C129.443972,41.0822761 129.437745,41.0603456 129.416488,41.0388451 L129.396519,41.0259448 L129.382777,41.0218597 C129.379986,41.0214297 129.377195,41.0207847 129.375047,41.0197097 C129.374618,41.0141196 129.375047,41.0027243 129.377195,40.9835889 L129.380845,40.9564983 L129.36152,40.9367178 C129.268761,40.8442657 129.275203,40.7341833 129.275847,40.7300982 L129.277565,40.7094577 L129.265326,40.6929023 C129.25824,40.6827971 129.223456,40.632486 129.239345,40.6161456 C129.251584,40.6038903 129.279927,40.5976552 129.291522,40.5963652 L129.364097,40.590775 L129.339404,40.5219735 C129.335754,40.5122983 129.334465,40.5056331 129.333177,40.5034831 C129.34606,40.500473 129.372256,40.5034831 129.376765,40.5028381 C129.379771,40.5067081 129.385139,40.5191784 129.387931,40.5288536 L129.400599,40.5709946 L129.444402,40.5688445 C129.46115,40.5681995 129.498511,40.5654045 129.527069,40.5570193 C129.539737,40.5626094 129.563142,40.5767997 129.582037,40.590775 L129.596638,40.6015253 L129.627772,40.6015253 L129.653109,40.6376461 L129.693691,40.6456013 C129.711083,40.6552765 129.743506,40.6692518 129.784947,40.6640917 C129.790314,40.6709718 129.797615,40.6817221 129.802768,40.6890322 C129.825528,40.721713 129.856448,40.766864 129.906048,40.7634239 C129.919146,40.765144 129.952642,40.7838494 129.989574,40.8085749 L129.99666,40.8262053 C130.008469,40.853726 130.027579,40.8595311 130.056781,40.8606061 L130.057211,40.8606061 L130.080186,40.8606061 C130.111749,40.8606061 130.125277,40.8689913 130.201717,40.9259676 C130.227698,40.945318 130.259476,40.9689685 130.30972,41.0027243 C130.629652,41.1489276 132.407528,43.0201147 132.484397,43.1809383 C132.493201,43.1996438 132.519826,43.255545 132.384982,43.3903531 M135.132315,41.8848892 C135.132315,39.5095157 133.209289,37.5847924 130.83793,37.5847924 C128.46657,37.5847924 126.543544,39.5095157 126.543544,41.8848892 C126.543544,44.2594026 128.46657,46.184986 130.83793,46.184986 C133.209289,46.184986 135.132315,44.2594026 135.132315,41.8848892" id="Fill-79" fill="#8C6D58"></path>
                    <path d="M141.276765,40.524317 L141.774914,41.0942949 C141.739485,40.8087684 141.525839,40.6309594 141.276765,40.524317" id="Fill-101" fill="#8C6D58"></path>
                    <path d="M142.735611,39.989299 C142.833952,39.989299 142.913613,39.9097472 142.913613,39.81149 C142.913613,39.7134478 142.833952,39.633251 142.735611,39.633251 C142.637484,39.633251 142.557608,39.7134478 142.557608,39.81149 C142.557608,39.9097472 142.637484,39.989299 142.735611,39.989299" id="Fill-102" fill="#8C6D58"></path>
                    <path d="M143.634533,41.6992325 C143.615637,41.7392234 143.591374,41.7794293 143.565178,41.8200652 C143.551651,41.5738847 143.519658,41.3279191 143.449445,41.0819536 L143.541345,41.854896 C143.437635,42.0028193 143.297209,42.1496676 143.183408,42.2889908 C143.107612,42.3825179 143.037398,42.4824951 142.948075,42.5738722 C142.86412,42.6596591 142.784459,42.7630764 142.692774,42.8391881 C142.656057,42.8701488 142.584556,42.8972395 142.525722,42.9378754 C142.47054,42.9763612 142.415571,43.0225873 142.368977,43.0458078 C142.273213,43.0931089 142.168859,43.1197695 142.074168,43.1733057 C141.755739,43.3556298 141.465653,43.6061104 141.024191,43.674912 C140.757724,43.7161929 140.449817,43.7342533 140.249054,43.6648067 C140.155222,43.632556 140.071911,43.5772998 139.983876,43.5175284 C139.900565,43.4611971 139.798573,43.4001358 139.748114,43.3407944 C139.70925,43.2939234 139.675968,43.2083515 139.630663,43.1343898 C139.540051,42.9871115 139.462537,42.8578936 139.463396,42.6231083 C139.465329,42.2584601 139.646981,41.9090772 139.787408,41.6699918 C140.011575,41.2883582 140.38626,40.9843414 140.788429,40.7856769 C140.990694,40.6850547 141.194892,40.5824974 141.397158,40.4515594 C141.487769,40.3922181 141.602859,40.344272 141.701415,40.2845006 C141.949416,40.1337823 142.072235,40.0598206 142.51606,40.0581005 C142.671087,40.0576705 142.93283,40.0897063 143.075189,40.166463 C143.172886,40.2189242 143.235799,40.3171814 143.330705,40.3724376 C143.48745,40.4644597 143.692292,40.5078907 143.752628,40.6773145 C143.857411,40.9707961 143.727292,41.5050831 143.634533,41.6992325 M145.921937,41.8849967 C145.921937,39.5102682 143.999126,37.5846849 141.627552,37.5846849 C139.255977,37.5846849 137.333166,39.5102682 137.333166,41.8849967 C137.333166,44.2595101 139.255977,46.1850935 141.627552,46.1850935 C143.999126,46.1850935 145.921937,44.2595101 145.921937,41.8849967" id="Fill-103" fill="#8C6D58"></path>
                    <path d="M142.415507,41.957589 L142.984513,42.1324487 C142.842369,41.957589 142.629153,41.8997697 142.415507,41.957589" id="Fill-104" fill="#8C6D58"></path>
                    <path d="M142.768525,43.0897763 C142.671822,43.0897763 142.593552,43.1683187 142.593552,43.2649864 C142.593552,43.361654 142.671822,43.4401965 142.768525,43.4401965 C142.865228,43.4401965 142.9438,43.361654 142.9438,43.2649864 C142.9438,43.1683187 142.865228,43.0897763 142.768525,43.0897763" id="Fill-105" fill="#8C6D58"></path>
                </g>
                <polyline id="Stroke-66" stroke="#895837" stroke-width="0.5" stroke-linecap="round" points="208.868171 79.1287686 178.854497 79.1287686 178.863945 116.08423"></polyline>
            </g>
        </g>
    </g>
</svg>