<?xml version="1.0" encoding="UTF-8" standalone="no"?>
<svg width="196px" height="290px" viewBox="0 0 196 290" version="1.1" xmlns="http://www.w3.org/2000/svg" xmlns:xlink="http://www.w3.org/1999/xlink">
    <!-- Generator: Sketch 41.2 (35397) - http://www.bohemiancoding.com/sketch -->
    <title>Page 1</title>
    <desc>Created with Sketch.</desc>
    <defs>
        <polygon id="path-1" points="16.069 19.0106559 16.069 0.976580592 0.244696783 0.976580592 0.244696783 19.0106559 16.069 19.0106559"></polygon>
    </defs>
    <g id="Landing" stroke="none" stroke-width="1" fill="none" fill-rule="evenodd">
        <g id="Page-1" transform="translate(0.000000, -1.000000)">
            <path d="M180.5129,13.2848 C180.1639,9.6758 181.6309,5.2178 184.2809,2.7438 C184.6219,2.4258 185.0639,2.1068 185.5139,2.2278 C185.9659,2.3488 186.1879,2.8478 186.3329,3.2918 C186.7459,4.5618 187.0229,5.8758 187.1589,7.2038 C187.2459,8.0538 186.7909,10.4078 187.1929,11.0608 C188.3599,12.9508 193.9359,9.5878 193.8149,13.0348 C193.7219,15.6938 187.5419,16.9258 185.7889,17.8278" id="Fill-1" fill="#48C2FF"></path>
            <g id="Group-5" transform="translate(179.000000, 0.024000)">
                <mask id="mask-2" fill="white">
                    <use xlink:href="#path-1"></use>
                </mask>
                <g id="Clip-4"></g>
                <path d="M2.7629,13.2608 C2.6189,10.7518 3.4639,3.8898 6.8459,3.4088 C6.4409,3.3018 6.0359,3.1948 5.6299,3.0878 C8.9259,5.6688 4.1289,12.8958 10.0039,12.8978 C10.7679,12.8978 11.8199,12.4438 12.5489,12.6368 C14.2509,13.0888 12.7339,14.0378 11.7069,14.5668 C9.9379,15.4778 7.9619,15.8928 6.1589,16.7248 C4.6989,17.3978 5.9679,19.5538 7.4199,18.8828 C10.0619,17.6648 14.9739,17.1178 15.9429,13.7978 C16.3199,12.5068 15.8499,11.0498 14.6259,10.4348 C13.1159,9.6768 11.3799,10.9188 10.0039,10.3978 C7.9699,9.6278 10.7759,0.0748 5.8529,1.0458 C1.4999,1.9038 0.0619,9.7528 0.2629,13.2608 C0.3549,14.8598 2.8549,14.8708 2.7629,13.2608" id="Fill-3" fill="#231F1F" mask="url(#mask-2)"></path>
            </g>
            <path d="M178.9213,12.241 C177.5473,9.331 177.2633,6.842 177.2793,3.651 C177.8653,3.319 178.6453,3.367 179.1853,3.769 C179.7963,4.223 180.1193,5.484 180.5133,6.155" id="Fill-6" fill="#48C2FF"></path>
            <path d="M180.0006,11.6101 C178.8406,9.0501 178.5326,6.4361 178.5286,3.6511 C178.2226,4.0521 177.9176,4.4541 177.6116,4.8561 C178.7936,4.4071 179.0636,6.0711 179.4336,6.7861 C180.1736,8.2151 182.3316,6.9521 181.5926,5.5241 C180.5826,3.5741 179.6056,1.4361 176.9466,2.4451 C176.4256,2.6431 176.0286,3.0641 176.0286,3.6511 C176.0326,6.9061 176.4916,9.8921 177.8416,12.8721 C178.5046,14.3351 180.6596,13.0661 180.0006,11.6101" id="Fill-8" fill="#231F1F"></path>
            <path d="M176.4649,11.1341 C179.2239,13.7391 182.2879,16.0211 185.5739,17.9181" id="Fill-10" fill="#FF88E0"></path>
            <path d="M175.581,12.018 C178.443,14.685 181.568,17.019 184.943,18.998 C186.334,19.813 187.593,17.653 186.205,16.839 C183.009,14.966 180.059,12.776 177.349,10.25 C176.173,9.154 174.401,10.918 175.581,12.018" id="Fill-12" fill="#231F1F"></path>
            <path d="M63.6042,250.8144 C63.8762,250.3254 64.4372,250.0814 64.9732,249.9194 C65.9812,249.6134 66.8792,249.1104 67.8962,248.8144 C68.9792,248.4994 70.0982,248.3094 71.2242,248.2374 C73.3012,248.1034 76.2552,248.1974 78.0762,249.3614 C79.5772,250.3204 78.9752,253.1174 77.9652,254.2094 C77.5522,254.6554 76.9752,254.7654 76.4452,255.0514 C75.7942,255.4034 75.1412,255.7524 74.4862,256.0954 C71.8002,257.5004 69.0592,258.8114 66.2082,259.8464 C63.6372,260.7804 60.9742,261.4854 58.2612,261.8514 C56.9022,262.0344 55.5492,262.0114 54.1902,262.1274 C53.1072,262.2204 52.3132,262.0674 51.4912,261.2344 C50.8422,260.5774 50.9242,260.1884 50.9272,259.3514 C50.9352,257.2394 50.7912,255.1154 50.7232,253.0044" id="Fill-14" fill="#594A42"></path>
            <path d="M64.4881,251.6983 C65.7501,250.4703 68.0741,250.0623 69.7261,249.7533 C72.6281,249.2103 73.6421,248.9113 75.3131,251.5503 C77.0831,254.3453 76.2721,253.7573 73.8551,255.0163 C72.2421,255.8553 70.6161,256.6773 68.9491,257.4043 C65.1111,259.0783 61.0901,260.3433 56.9041,260.7283 C55.2881,260.8773 53.1451,261.0943 52.1771,259.3513 C51.4991,258.1293 52.0301,254.4543 51.9741,253.0043 C51.9111,251.4003 49.4111,251.3923 49.4741,253.0043 C49.6901,258.5843 48.5991,263.6413 55.5481,263.2953 C63.1181,262.9173 69.9971,259.9563 76.5871,256.3933 C79.5111,254.8133 82.0311,251.0683 78.7071,248.2823 C75.0681,245.2313 65.8311,246.9033 62.7201,249.9303 C61.5651,251.0543 63.3341,252.8213 64.4881,251.6983" id="Fill-16" fill="#231F1F"></path>
            <path d="M53.7232,245.3223 C52.8822,247.4983 53.3032,246.5883 52.4622,248.7643 L52.2102,249.2273 C50.7202,251.0903 50.6062,253.5543 52.5912,254.7673 C54.5762,255.9813 56.9922,255.8033 59.3942,255.4083 C62.0292,254.9753 63.5662,254.3583 62.2362,250.1953 C62.0842,248.9723 62.1442,247.0463 62.0292,245.8193" id="Fill-18" fill="#FFFFFF"></path>
            <path d="M52.8247,248.3062 C55.5957,249.6432 58.5417,249.9792 61.5357,249.2462 C63.0977,248.8632 62.4357,246.4522 60.8707,246.8352 C58.5597,247.4012 56.2347,247.1832 54.0867,246.1472 C52.6437,245.4512 51.3747,247.6062 52.8247,248.3062" id="Fill-20" fill="#F297FF"></path>
            <path d="M51.4829,252.7583 C54.7259,254.1353 58.0709,254.5123 61.5359,253.8363 C63.1129,253.5293 62.4459,251.1193 60.8709,251.4263 C58.1329,251.9603 55.3189,251.6923 52.7449,250.5993 C51.2809,249.9783 50.0049,252.1313 51.4829,252.7583" id="Fill-22" fill="#00AEEF"></path>
            <path d="M52.5178,244.99 C52.0998,246.082 51.8058,247.33 51.2568,248.365 C50.5288,249.739 49.7468,250.844 49.8738,252.487 C50.1388,255.9 53.8768,257.033 56.7898,256.946 C58.8608,256.885 62.2188,256.722 63.4638,254.712 C64.0918,253.697 64.0238,252.448 63.8158,251.323 C63.4728,249.461 63.4168,247.707 63.2788,245.819 C63.1618,244.224 60.6608,244.212 60.7788,245.819 C60.8608,246.935 60.8428,248.052 60.9058,249.168 C60.9678,250.273 61.3998,251.293 61.4608,252.384 C61.5728,254.344 58.8748,254.296 57.4348,254.409 C56.0808,254.515 54.3828,254.522 53.2218,253.688 C51.6668,252.57 52.5898,251.107 53.2888,249.859 C54.0178,248.56 54.3978,247.042 54.9288,245.655 C55.5038,244.151 53.0878,243.5 52.5178,244.99" id="Fill-24" fill="#231F1F"></path>
            <path d="M74.5079,253.3243 C74.7799,252.8353 75.3409,252.5913 75.8769,252.4293 C76.8849,252.1233 77.7829,251.6203 78.7999,251.3243 C79.8829,251.0093 81.0019,250.8193 82.1279,250.7473 C83.9029,250.6333 85.7699,250.6693 87.4819,251.2003 C88.2869,251.4503 88.9539,251.7193 89.4059,252.4533 C89.9139,253.2793 90.3819,254.5753 89.8139,255.4643 C89.5519,255.8733 89.2039,256.3753 88.8679,256.7203 C88.4469,257.1513 87.8649,257.2823 87.3489,257.5613 C86.6979,257.9133 86.0449,258.2623 85.3899,258.6053 C82.7039,260.0103 79.9629,261.3213 77.1119,262.3563 C73.6699,263.6073 70.0519,264.4533 66.3849,264.6113 C65.0259,264.6693 63.1639,265.1113 62.2289,263.8523 C61.4679,262.8273 61.8149,261.3543 61.7769,260.1763 C61.7269,258.6223 61.6769,257.0683 61.6269,255.5143" id="Fill-26" fill="#594A42"></path>
            <path d="M75.3918,254.2082 C77.3418,252.3102 85.1118,250.4472 87.1498,252.4062 C90.8738,255.9842 82.3928,258.7572 80.6798,259.5342 C76.3678,261.4922 72.0268,262.8462 67.2998,263.2932 C62.0888,263.7862 62.9948,259.1752 62.8778,255.5142 C62.8258,253.9092 60.3258,253.9022 60.3778,255.5142 C60.5288,260.2402 59.1648,265.8602 65.2938,265.9442 C73.1258,266.0522 80.7618,262.5392 87.4908,258.9032 C90.7128,257.1622 93.1128,253.5392 89.3338,250.6642 C85.6598,247.8682 76.7638,249.3842 73.6238,252.4402 C72.4688,253.5642 74.2378,255.3312 75.3918,254.2082" id="Fill-28" fill="#231F1F"></path>
            <path d="M64.6269,247.8322 C63.7859,250.0082 64.2069,249.0982 63.3659,251.2742 L63.1139,251.7372 C61.6239,253.6002 61.5099,256.0642 63.4949,257.2772 C65.4799,258.4912 67.8959,258.3132 70.2979,257.9182 C72.9329,257.4852 74.4699,256.8682 73.1399,252.7052 C72.9879,251.4822 73.0479,249.5562 72.9329,248.3292" id="Fill-30" fill="#FFFFFF"></path>
            <path d="M63.7284,250.8161 C66.4994,252.1531 69.4454,252.4891 72.4394,251.7561 C74.0014,251.3731 73.3394,248.9621 71.7744,249.3451 C69.4634,249.9111 67.1384,249.6931 64.9904,248.6571 C63.5474,247.9611 62.2784,250.1161 63.7284,250.8161" id="Fill-32" fill="#F297FF"></path>
            <path d="M62.3866,255.2682 C65.6296,256.6452 68.9746,257.0222 72.4396,256.3462 C74.0166,256.0392 73.3496,253.6292 71.7746,253.9362 C69.0366,254.4702 66.2226,254.2022 63.6486,253.1092 C62.1846,252.4882 60.9086,254.6412 62.3866,255.2682" id="Fill-34" fill="#00AEEF"></path>
            <path d="M63.4216,247.4999 C63.0036,248.5919 62.7096,249.8399 62.1606,250.8749 C61.4326,252.2489 60.6506,253.3539 60.7776,254.9969 C61.0426,258.4099 64.7806,259.5429 67.6936,259.4559 C69.7646,259.3949 73.1226,259.2319 74.3676,257.2219 C74.9956,256.2069 74.9276,254.9579 74.7196,253.8329 C74.3766,251.9709 74.3206,250.2169 74.1826,248.3289 C74.0656,246.7339 71.5646,246.7219 71.6826,248.3289 C71.7646,249.4449 71.7466,250.5619 71.8096,251.6779 C71.8716,252.7829 72.3036,253.8029 72.3646,254.8939 C72.4766,256.8539 69.7786,256.8059 68.3386,256.9189 C66.9846,257.0249 65.2866,257.0319 64.1256,256.1979 C62.5706,255.0799 63.4936,253.6169 64.1926,252.3689 C64.9216,251.0699 65.3016,249.5519 65.8326,248.1649 C66.4076,246.6609 63.9916,246.0099 63.4216,247.4999" id="Fill-36" fill="#231F1F"></path>
            <path d="M47.0466,174.6192 L47.6886,177.7982 C48.8406,183.5072 49.9946,189.2242 50.5206,194.9952 C50.7086,197.0582 50.7576,199.3022 49.3096,200.9862 C48.7046,201.6902 47.8596,202.2642 47.4506,203.0582 C46.7696,203.4932 45.7276,203.1422 45.2126,202.5722 C44.6976,202.0022 44.5166,201.2772 44.1516,200.6332 C43.7306,199.8912 43.0706,199.2642 42.5026,198.5932 C40.6106,196.3572 39.7516,193.6282 39.3146,190.9212 C38.3376,184.8712 39.2986,178.7342 40.2596,172.6822" id="Fill-38" fill="#A97C50"></path>
            <path d="M45.8412,174.9516 C46.6952,179.1796 47.5972,183.4036 48.2972,187.6606 C48.5282,189.0656 50.9582,204.8256 45.4682,200.5006 C37.7662,194.4346 40.1832,181.1536 41.4642,173.0146 C41.7122,171.4406 39.3032,170.7636 39.0542,172.3506 C38.0002,179.0436 36.7522,186.1766 38.4262,192.8766 C39.3052,196.3906 41.1382,198.3836 43.0722,201.2636 C43.9752,202.6086 44.2032,204.0816 46.1032,204.4196 C49.7402,205.0686 51.7462,199.5856 51.8492,196.8796 C52.1322,189.4556 49.7082,181.5016 48.2522,174.2866 C47.9342,172.7116 45.5232,173.3786 45.8412,174.9516" id="Fill-40" fill="#231F1F"></path>
            <path d="M57.5539,213.0597 C56.3519,217.0967 58.4609,221.2717 59.4599,225.3637 C59.9779,227.4817 60.1979,229.6597 60.4169,231.8297 C60.4369,232.0277 60.6329,244.5647 60.6329,244.5647 C65.7429,248.8847 73.5039,249.7567 79.4449,246.6767 C79.9769,246.4007 80.5129,246.0807 80.8529,245.5857 C81.2829,244.9587 81.3309,244.1537 81.3649,243.3947 C82.2219,224.3817 86.1369,221.1267 84.7859,201.0087 L47.1109,198.5357 C45.9099,202.5727 48.1429,221.2717 49.1429,225.3637 C49.6609,227.4817 49.1569,231.9817 50.3409,243.7177 L50.3159,244.5647 C53.8439,247.5477 58.6359,248.8867 63.2199,248.4157" id="Fill-42" fill="#262262"></path>
            <path d="M56.3486,212.7274 C55.1446,218.7464 58.3576,224.2724 58.9976,230.2014 C59.3046,233.0434 59.2446,235.9144 59.2906,238.7694 C59.3226,240.6994 58.7716,243.7104 59.7496,245.4484 C61.5676,248.6804 68.6856,249.7694 71.8716,249.7434 C74.8666,249.7184 80.1136,249.0474 81.9316,246.2164 C83.0256,244.5134 82.6846,241.7594 82.8176,239.9024 C83.0306,236.9144 83.3576,233.9384 83.7936,230.9744 C85.2886,220.8344 86.6596,211.3274 86.0356,201.0094 C85.9926,200.3004 85.4956,199.8054 84.7856,199.7594 C72.2276,198.9344 59.6696,198.1104 47.1116,197.2854 C46.5836,197.2514 46.0276,197.6974 45.9056,198.2034 C43.7706,207.1184 46.9306,217.4684 48.0466,226.3574 C48.7686,232.1004 47.7066,238.2834 49.0846,243.9294 C50.3076,248.9394 58.8426,249.9234 63.2206,249.6664 C64.8196,249.5724 64.8306,247.0714 63.2206,247.1664 C60.2536,247.3404 53.4656,247.0744 51.5786,244.1414 C50.4136,242.3294 50.9836,236.5734 50.8686,234.2144 C50.7126,230.9804 50.7956,227.7494 50.2406,224.5574 C49.4786,220.1724 48.8966,215.7754 48.4976,211.3404 C48.2666,208.7714 48.0666,206.1904 48.0256,203.6104 C48.0116,202.7104 48.2646,201.4654 48.0706,200.5964 C47.7556,199.1814 48.9066,199.3454 47.2476,199.7944 C49.0406,199.3094 52.1396,200.1154 53.9576,200.2354 C58.1196,200.5084 62.2816,200.7814 66.4446,201.0554 C72.5576,201.4564 78.6716,201.8574 84.7856,202.2594 C84.3696,201.8424 83.9526,201.4254 83.5356,201.0094 C84.0416,209.3764 83.5256,217.3624 82.1416,225.6124 C81.5616,229.0704 81.0196,232.5304 80.6576,236.0194 C80.4226,238.2854 80.8066,241.2854 80.1156,243.3944 C79.0516,246.6374 74.8306,247.2144 71.8716,247.2434 C69.0986,247.2704 62.7466,246.1474 61.8706,243.7254 C61.1356,241.6964 61.7786,237.9724 61.7426,235.8294 C61.7056,233.6564 61.6696,231.5474 61.3986,229.3894 C60.7406,224.1414 57.7026,218.6744 58.7596,213.3924 C59.0736,211.8214 56.6646,211.1484 56.3486,212.7274" id="Fill-44" fill="#231F1F"></path>
            <path d="M82.9906,128.5026 C84.5876,124.4016 83.7926,119.4636 80.9876,116.0716 C80.4236,115.3886 79.7636,114.7246 79.5596,113.8626 C79.3776,113.0906 79.5926,112.2676 79.4206,111.4936 C79.0456,109.8056 77.2666,109.3356 75.7576,109.2726 C75.1236,109.2466 73.7876,109.7066 73.2546,109.5106 C72.5036,109.2326 72.1296,107.7876 71.6816,107.0416 C69.4866,103.3856 66.0366,100.5846 62.2686,98.6676 C60.4116,97.7226 58.4486,96.9636 56.4056,96.5496 C52.1596,95.6876 47.6166,96.3776 43.8186,98.4606 C41.6686,99.6396 39.7716,101.2346 38.0246,102.9556 C36.0016,104.9476 34.1346,107.1576 32.9506,109.7386 C31.6876,112.4926 31.2546,115.5566 31.1176,118.5826 C30.9536,122.1746 31.1956,125.8306 32.3426,129.2386 C33.4906,132.6466 35.6056,135.8046 38.6246,137.7596 C43.1386,140.6826 45.4686,141.4336 50.8416,141.2186 C51.2206,144.2816 51.4716,148.5656 49.9256,151.2366 L54.5106,152.4076 C55.4766,153.0106 56.6806,153.0486 57.8186,153.0456 C60.6076,153.0386 63.3926,152.8916 66.1776,152.7446 C67.9906,152.6496 72.5396,152.8366 73.8106,151.2386 C74.7076,150.1106 73.8476,146.8186 73.8596,145.3976 C73.8976,141.0236 74.5616,136.2246 77.0796,132.5236 L82.9906,128.5026 Z" id="Fill-46" fill="#A97C50"></path>
            <path d="M84.1959,128.8349 C85.9039,123.4729 84.4099,119.8489 81.8719,115.1879 C80.9159,113.4329 81.0659,110.9689 79.6599,109.4619 C78.1469,107.8409 76.7099,108.6189 74.9449,108.1159 C72.7909,107.5039 72.1369,105.2499 70.6989,103.5769 C68.5589,101.0859 65.8149,99.0779 62.8999,97.5889 C58.0149,95.0929 52.5669,94.1979 47.2389,95.7319 C34.8409,99.3019 28.7679,111.8529 29.9889,123.9799 C31.1259,135.2839 39.5899,142.7209 50.8419,142.4679 C50.4249,142.0519 50.0089,141.6349 49.5919,141.2179 C49.9339,144.3739 50.1899,147.6279 48.8459,150.6059 C48.5249,151.3169 48.7449,152.2259 49.5929,152.4429 C53.6489,153.4779 56.9009,154.3659 61.1639,154.2289 C64.4399,154.1239 71.2579,154.9669 74.0759,152.6419 C75.3069,151.6259 75.4169,150.5419 75.4429,148.9829 C75.4959,145.8039 74.9829,142.9959 75.5939,139.7799 C76.1979,136.6029 77.0249,134.2759 79.4869,132.3939 C80.8049,131.3869 82.2499,130.5149 83.6219,129.5819 C84.9439,128.6819 83.6949,126.5149 82.3599,127.4229 C80.4079,128.7509 77.8569,129.9589 76.1959,131.6399 C73.1069,134.7649 72.5159,141.2599 72.6099,145.3979 C72.6899,148.9059 73.7829,150.7539 69.0539,151.3979 C66.5079,151.7439 63.7239,151.6469 61.1639,151.7289 C57.2019,151.8559 54.0279,150.9939 50.2579,150.0319 C50.5069,150.6439 50.7559,151.2559 51.0049,151.8679 C52.5589,148.4249 52.4939,144.9219 52.0919,141.2179 C52.0199,140.5579 51.5769,139.9519 50.8419,139.9679 C39.2209,140.2299 32.3509,131.6969 32.3219,120.3829 C32.2929,109.0689 40.8839,97.1379 53.1819,97.4419 C58.5689,97.5749 64.1099,100.3679 67.8489,104.1749 C69.4669,105.8229 70.6599,109.8109 72.9219,110.7159 C73.8589,111.0899 74.8779,110.2759 75.7579,110.5229 C80.2149,111.7739 77.2259,112.6159 78.4799,114.4929 C81.4499,118.9339 83.5349,122.6779 81.7849,128.1699 C81.2959,129.7069 83.7089,130.3649 84.1959,128.8349" id="Fill-48" fill="#231F1F"></path>
            <path d="M66.3413,114.8688 C72.7923,109.7018 81.0413,101.2268 79.2453,92.3698 C76.9573,81.0838 68.1323,79.5848 60.4633,86.8508 C57.7093,89.4608 54.5683,91.4978 53.6623,95.2958" id="Fill-50" fill="#2B3990"></path>
            <path d="M67.2252,115.7527 C75.8622,108.6977 87.2282,94.6707 76.5812,84.0337 C68.6202,76.0807 55.1392,86.7447 52.4572,94.9637 C51.9572,96.4967 54.3702,97.1537 54.8682,95.6277 C57.4882,87.5967 71.6542,77.9567 76.7882,88.8377 C81.5732,98.9797 72.7532,108.0257 65.4572,113.9847 C64.2112,115.0037 65.9882,116.7627 67.2252,115.7527" id="Fill-52" fill="#231F1F"></path>
            <path d="M63.5345,123.8678 C65.0405,120.6308 66.5605,117.3488 67.1875,113.8348 C67.8135,110.3208 67.4525,106.4878 65.4335,103.5438 C64.1765,101.7118 62.3645,100.3338 60.4765,99.1638 C56.7495,96.8538 52.3785,95.2018 48.0335,95.7958 C44.0865,96.3358 40.6325,98.6428 37.3775,100.9408 C35.6315,102.1728 33.8695,103.4478 32.5715,105.1458 C28.9855,109.8408 29.7015,115.7178 29.7295,121.1868 C29.7635,128.0358 32.2805,135.8358 38.8025,138.8038 C44.5705,141.4298 54.1875,143.4138 58.6165,137.3638" id="Fill-54" fill="#2B3990"></path>
            <path d="M51.8286,99.3971 C52.7226,98.9021 53.6166,98.4061 54.5106,97.9111 C55.9186,97.1311 54.6596,94.9711 53.2496,95.7521 C52.3546,96.2481 51.4606,96.7431 50.5666,97.2381 C49.1596,98.0181 50.4186,100.1781 51.8286,99.3971" id="Fill-56" fill="#FFFFFF"></path>
            <path d="M48.543,101.0957 C50.152,101.0957 50.154,98.5957 48.543,98.5957 C46.934,98.5957 46.932,101.0957 48.543,101.0957" id="Fill-58" fill="#FFFFFF"></path>
            <path d="M64.6138,124.4987 C67.0608,119.2037 69.7048,113.3567 68.3738,107.3917 C67.0758,101.5767 61.9688,97.9237 56.6778,95.8477 C51.2638,93.7227 46.1078,94.2527 41.0648,97.0417 C36.2058,99.7277 31.0078,103.3547 29.2908,108.8867 C26.5478,117.7247 27.7018,132.3637 35.6578,138.3597 C42.0578,143.1837 53.8608,144.9697 59.5008,138.2477 C60.5278,137.0237 58.7688,135.2457 57.7328,136.4807 C52.8628,142.2847 41.6488,140.4847 36.4298,135.7787 C30.8168,130.7177 30.6368,122.1417 30.9158,115.1357 C31.1518,109.2057 33.1558,105.4907 38.0088,102.0197 C42.3578,98.9087 46.9788,96.1617 52.5648,97.1967 C57.7928,98.1667 63.4298,101.5757 65.5678,106.5887 C67.8478,111.9337 64.6578,118.4707 62.4548,123.2367 C61.7848,124.6877 63.9388,125.9587 64.6138,124.4987" id="Fill-60" fill="#231F1F"></path>
            <path d="M68.4574,126.1401 C67.1064,122.6461 61.6314,121.7811 59.2684,124.6881 C58.1404,126.0771 57.7734,127.9401 57.7294,129.7301 C57.6644,132.3311 58.3664,135.1941 60.4954,136.6901 C62.6244,138.1861 66.3174,137.2811 66.7184,134.7101" id="Fill-62" fill="#A97C50"></path>
            <path d="M69.5367,125.5093 C68.2507,122.7013 65.0617,121.2953 62.0687,121.7903 C58.1837,122.4333 56.5647,126.1243 56.4797,129.7303 C56.4017,132.9893 57.5617,137.0613 60.9367,138.3043 C63.7267,139.3323 67.1707,138.0603 67.9237,135.0423 C68.3127,133.4813 65.9027,132.8153 65.5127,134.3773 C64.9647,136.5753 62.0417,136.5623 60.6537,135.1783 C59.1007,133.6323 58.8267,131.0373 59.0197,128.9603 C59.2357,126.6263 60.3757,124.3893 62.9237,124.1943 C64.8607,124.0473 66.5797,125.0283 67.3777,126.7713 C68.0467,128.2323 70.2027,126.9633 69.5367,125.5093" id="Fill-64" fill="#231F1F"></path>
            <path d="M43.5715,178.2853 C42.4505,178.0913 40.0485,177.7073 39.2645,176.7903 C38.4215,175.8033 38.7275,173.4573 38.7905,172.2623 C38.9595,169.0203 39.4605,165.7713 39.7745,162.5303 C40.2685,157.4343 42.0975,152.8203 46.6345,150.0373 C48.1525,149.1063 50.0405,147.8433 51.8665,147.9333 C54.6195,148.0693 57.3545,148.6493 60.0945,148.9323 C63.5275,149.2853 66.9845,149.3273 70.4305,149.2093 C71.9405,149.1573 73.6855,148.8093 75.1485,149.1023 C76.6815,149.4103 78.1815,150.2023 79.5915,150.8503 C82.0885,151.9983 85.3395,154.8823 85.7405,157.6003 C87.7155,170.9893 79.2675,182.0863 79.4955,187.9673" id="Fill-66" fill="#FFFFFF"></path>
            <path d="M43.9038,177.08 C40.9108,176.541 39.8658,175.201 40.0398,172.262 C40.2138,169.336 40.5608,166.411 40.9218,163.503 C41.6838,157.351 44.5818,149.958 51.8668,149.184 C56.5708,148.684 62.1628,150.505 66.9818,150.518 C70.6608,150.529 73.9568,149.841 77.5228,151.257 C80.4708,152.428 82.8768,154.461 85.3208,156.426 C86.5638,157.425 88.3428,155.667 87.0888,154.658 C84.0358,152.203 81.0608,149.786 77.2988,148.469 C73.9358,147.291 70.4818,148.03 66.9818,148.018 C59.2338,147.994 51.5008,144.611 44.8328,149.761 C39.4618,153.91 38.7768,160.119 38.0908,166.422 C37.7908,169.179 36.5338,173.771 37.7468,176.465 C38.7638,178.724 40.9368,179.076 43.2388,179.491 C44.8128,179.774 45.4868,177.365 43.9038,177.08" id="Fill-68" fill="#231F1F"></path>
            <path d="M84.5313,121.706 C82.9753,121.653 82.9303,123.983 84.3823,124.186 C84.0543,124.648 83.9693,125.32 84.1233,125.929 C83.9963,125.79 83.8553,125.658 83.6813,125.547 C83.3203,125.315 82.7803,125.316 82.4193,125.547 C81.2743,126.279 81.2133,127.47 81.7263,128.436 C81.6823,128.484 81.6353,128.531 81.5913,128.579 C81.5623,128.396 81.5253,128.215 81.4703,128.041 C81.1043,126.873 79.4103,126.834 79.0603,128.041 C79.0293,128.147 79.0113,128.251 78.9933,128.355 C78.6443,127.772 78.0473,127.434 77.2153,127.718 C76.9743,127.8 76.7883,127.913 76.6303,128.04 C75.9463,127.326 74.4223,127.59 74.4573,128.853 C74.5033,130.519 76.1883,132.573 77.8623,132.013 C78.0263,132.109 78.1913,132.189 78.3543,132.235 C79.5383,132.568 80.4203,132.149 80.9733,131.404 C81.5673,131.519 82.2283,131.418 82.8723,131.012 C83.2613,130.767 83.6183,130.4 83.9133,129.969 C84.1663,129.995 84.4253,129.988 84.6883,129.927 C85.9133,129.641 87.0473,128.107 87.3983,126.621 C88.7063,125.073 86.5693,121.775 84.5313,121.706" id="Fill-70" fill="#231F1F"></path>
            <path d="M60.0871,140.933 C60.0621,140.847 60.1391,140.816 60.0871,140.933 M60.5241,141.232 C60.3461,141.188 60.3561,141.17 60.2831,141.11 C60.5641,140.588 60.5311,139.939 59.9171,139.439 C59.7841,139.331 59.6341,139.251 59.4761,139.199 C59.4831,138.657 59.0641,138.122 58.5511,137.981 C57.8561,137.79 57.2441,138.217 57.0141,138.854 C56.6531,139.85 56.8811,141.066 57.7341,141.665 C58.0451,142.635 58.8641,143.4 59.8601,143.642 C61.4221,144.022 62.0891,141.612 60.5241,141.232" id="Fill-72" fill="#231F1F"></path>
            <path d="M55.6029,140.2379 C55.2829,139.6899 54.4489,139.4019 53.8929,139.7899 C53.1049,140.3379 52.6849,141.2469 52.6449,142.1979 C52.3139,142.9059 52.2049,143.7849 52.2789,144.3999 C52.3589,145.0699 52.7959,145.6499 53.5289,145.6499 C54.1419,145.6499 54.8599,145.0749 54.7789,144.3999 C54.7599,144.2429 54.7489,144.0669 54.7539,143.8919 C54.9609,143.8089 55.1599,143.6929 55.3269,143.5029 C55.8269,142.9369 55.7759,142.2199 55.4219,141.7039 C55.7769,141.3029 55.8969,140.7409 55.6029,140.2379" id="Fill-74" fill="#231F1F"></path>
            <path d="M48.9442,140.5127 C48.1602,141.0677 47.6352,141.7617 47.3142,142.5777 C46.2482,143.0707 45.4362,144.5327 45.3262,145.5727 C45.2542,146.2457 45.9512,146.8227 46.5762,146.8227 C47.3112,146.8227 47.7542,146.2467 47.8262,145.5727 C47.8412,145.4267 47.9362,145.2867 48.0532,145.1587 C48.2242,145.1877 48.3982,145.1817 48.5602,145.1177 C48.9592,144.9617 49.2322,144.7907 49.4532,144.4197 C49.6282,144.1277 49.6572,143.8017 49.5782,143.5017 C49.7012,143.1707 49.9202,142.8737 50.2062,142.6717 C51.5082,141.7487 50.2612,139.5797 48.9442,140.5127" id="Fill-76" fill="#231F1F"></path>
            <path d="M65.9379,139.4293 C65.5659,139.2553 65.0059,138.9843 64.6829,138.6133 C64.7109,138.5453 64.7439,138.4803 64.7659,138.4083 C65.0489,137.4983 64.1249,136.6103 63.2289,136.8703 C62.9179,136.9603 62.6689,137.1153 62.4789,137.3103 C62.4699,137.2973 62.4599,137.2833 62.4609,137.2843 C62.2139,136.6583 61.6229,136.2153 60.9229,136.4113 C60.3259,136.5783 59.7999,137.3153 60.0499,137.9483 C60.4539,138.9733 61.1609,139.8973 62.3379,140.0203 C62.4409,140.0303 62.5409,140.0283 62.6409,140.0253 C63.1739,140.6963 63.9299,141.2393 64.6759,141.5883 C66.1249,142.2643 67.3959,140.1103 65.9379,139.4293" id="Fill-78" fill="#231F1F"></path>
            <path d="M85.5979,185.0763 C86.0919,185.0833 85.1399,186.9513 85.1719,187.4453 C85.4469,191.7433 85.3809,200.9983 84.9749,205.2863 C84.9529,205.5163 84.9259,205.7593 84.7859,205.9433 C84.6579,206.1123 84.4549,206.2043 84.2619,206.2903 C78.0559,209.0303 71.3019,210.4443 64.5029,210.3763 C62.0929,210.3523 60.3489,209.7153 58.1129,209.0313 C55.1889,208.1353 52.2749,207.5793 49.4009,206.4553 C48.2949,206.0223 46.1339,205.5053 45.3499,204.5683 C44.5299,203.5883 44.8129,201.7573 44.7379,200.5093 C44.5219,196.9473 44.2609,173.9573 44.0799,170.3933" id="Fill-80" fill="#FFFFFF"></path>
            <path d="M84.5186,185.7072 C84.3856,185.4142 83.9656,187.6942 83.9486,187.9412 C83.8206,189.7482 84.0756,191.6762 84.0856,193.4952 C84.1036,196.7492 85.2966,203.8302 82.2236,205.7992 C77.6986,208.6992 69.6546,209.3912 64.5026,209.1262 C61.2516,208.9592 58.0596,207.7182 54.9436,206.8562 C52.0186,206.0462 49.3316,205.6262 47.3716,203.2182 C44.3506,199.5062 45.7466,191.2442 45.6656,186.5882 C45.5716,181.1932 45.5706,175.7842 45.3306,170.3932 C45.2586,168.7902 42.7586,168.7822 42.8306,170.3932 C43.1606,177.7852 43.1306,185.2022 43.2746,192.6002 C43.3326,195.5732 43.3406,198.5622 43.4996,201.5322 C43.7346,205.9192 45.9846,206.6482 49.9336,207.9672 C56.2516,210.0772 62.4166,212.0292 69.1246,211.4362 C72.3066,211.1542 75.4476,210.5822 78.5176,209.6952 C80.4696,209.1302 84.0366,208.5192 85.5436,206.9252 C87.5696,204.7812 86.5666,198.3152 86.5836,195.6452 C86.5986,193.1182 86.2076,190.3282 86.4876,187.8192 C86.6286,186.5562 87.2216,185.6482 86.6776,184.4452 C86.0146,182.9822 83.8596,184.2512 84.5186,185.7072" id="Fill-82" fill="#231F1F"></path>
            <path d="M81.821,184.522 C81.556,188.382 81.948,192.273 82.667,196.095 C83.178,198.815 84.08,201.427 85.228,203.942 C86.33,206.358 85.863,209.517 87.922,211.446 C91.221,214.536 97.558,208.304 94.726,205.289 C94.231,204.762 93.366,204.884 92.977,204.44 C92.547,203.949 92.54,202.519 92.487,201.893 C92.307,199.739 92.211,197.579 92.2,195.417 C92.182,191.943 91.956,188.057 92.667,184.644" id="Fill-84" fill="#A97C50"></path>
            <path d="M80.571,184.522 C80.22,193.075 82.809,200.177 85.011,208.209 C86.011,211.856 88.498,214.793 92.545,212.903 C95.04,211.738 97.816,208.225 96.276,205.349 C95.019,203.001 93.809,203.486 93.618,200.277 C93.318,195.239 93.061,189.971 93.872,184.976 C94.128,183.402 91.719,182.725 91.462,184.312 C90.695,189.036 90.815,193.887 91.03,198.658 C91.144,201.186 91.135,203.396 92.346,205.519 C92.78,206.28 94.19,207.09 93.729,208.548 C93.459,209.4 91.697,210.781 90.877,210.899 C87.678,211.358 87.072,205.473 86.37,203.46 C84.161,197.13 82.791,191.348 83.071,184.522 C83.137,182.913 80.637,182.916 80.571,184.522" id="Fill-86" fill="#231F1F"></path>
            <path d="M86.205,155.5419 C87.225,156.3409 88.254,157.1479 89.078,158.1469 C90.585,159.9759 91.304,162.3169 91.877,164.6169 C92.577,167.4259 93.551,170.3329 93.787,173.2299 C93.999,175.8229 95.343,181.7639 93.136,183.7449 C90.828,185.8159 85.187,185.1629 82.371,185.0869 C81.173,185.0549 80.052,185.0569 79.373,183.8879 C78.288,182.0199 78.778,179.1039 78.75,177.0479 C78.715,174.4269 78.679,171.8059 78.644,169.1849" id="Fill-88" fill="#FFFFFF"></path>
            <path d="M85.3211,156.4258 C89.2821,159.5798 90.4281,163.6148 91.5781,168.3598 C92.3581,171.5738 93.9851,177.4868 92.9981,180.8718 C91.9411,184.4928 86.1151,184.6308 82.8331,183.8558 C79.4801,183.0648 79.9421,180.5158 79.9861,177.7088 C80.0301,174.8708 79.9321,172.0238 79.8941,169.1848 C79.8721,167.5778 77.3721,167.5728 77.3941,169.1848 C77.4481,173.1998 76.9281,177.6268 77.4881,181.5978 C77.7431,183.4068 78.1321,185.0348 79.8541,185.9168 C82.8641,187.4598 91.0871,187.1438 93.7671,184.8248 C97.1721,181.8768 95.4171,175.2588 94.8151,171.4918 C93.8011,165.1418 92.2731,158.7868 87.0891,154.6578 C85.8431,153.6658 84.0621,155.4238 85.3211,156.4258" id="Fill-90" fill="#231F1F"></path>
            <g id="Group-94" transform="translate(0.000000, 259.024000)" fill="#231F1F" opacity="0.0299999993">
                <path d="M58.6134,0.1869 C41.0134,4.5759 23.3454,8.9879 6.5394,15.8119 C3.6544,16.9829 0.3844,18.7499 0.0294,21.8429 C-0.1576,23.4659 0.5684,25.0849 1.6164,26.3379 C5.9914,31.5709 13.7884,31.1279 19.8704,30.8549 C27.2204,30.5249 35.4274,28.7919 41.4304,24.3899 C47.5374,19.9109 55.0324,17.7909 61.8914,14.4849 C68.7604,11.1729 75.6284,7.8619 82.4974,4.5509 C84.1724,3.7439 86.0904,2.5829 86.1464,0.7239" id="Fill-92"></path>
            </g>
        </g>
    </g>
</svg>