<?xml version="1.0" encoding="utf-8"?>
<!-- Generator: Adobe Illustrator 19.1.0, SVG Export Plug-In . SVG Version: 6.00 Build 0)  -->
<svg version="1.1" id="Layer_1" xmlns="http://www.w3.org/2000/svg" xmlns:xlink="http://www.w3.org/1999/xlink" x="0px" y="0px"
	 viewBox="0 0 580.1 70.8" style="enable-background:new 0 0 580.1 70.8;" xml:space="preserve">
<style type="text/css">
	.st0{fill:#ffffff;}
	.st1{fill:#ffffff;}
	.st2{fill:#ffffff;}
</style>
<g>
	<path class="st0" d="M169.4,7.5h-7.7c-0.4,0-0.7,0.2-0.8,0.6l-12.9,37.5L135.7,8c-0.1-0.3-0.4-0.6-0.8-0.6h-5.8
		c-0.4,0-0.7,0.2-0.8,0.6L116,45.6L103.2,8.1c-0.1-0.3-0.4-0.6-0.8-0.6h-7.9c-0.3,0-0.5,0.1-0.7,0.3c-0.2,0.2-0.2,0.5-0.1,0.8
		l18.4,51.9c0.1,0.3,0.4,0.5,0.8,0.5h5.9c0.4,0,0.7-0.2,0.8-0.6l12.4-36.4l12.3,36.4c0.1,0.3,0.4,0.6,0.8,0.6h5.9
		c0.3,0,0.7-0.2,0.8-0.5l18.4-51.9c0.1-0.3,0-0.5-0.1-0.8C169.9,7.7,169.7,7.5,169.4,7.5z"/>
	<path class="st0" d="M273,7.5h-8.6c-0.3,0-0.5,0.1-0.7,0.4L248,31.2L232.3,7.9c-0.2-0.2-0.4-0.4-0.7-0.4h-8.8
		c-0.3,0-0.6,0.2-0.7,0.4c-0.1,0.3-0.1,0.6,0,0.8l21.3,31v20.1c0,0.5,0.4,0.8,0.8,0.8h7.3c0.5,0,0.8-0.4,0.8-0.8V39.8l21.3-30.9
		c0.2-0.3,0.2-0.6,0-0.8C273.6,7.7,273.3,7.5,273,7.5z"/>
	<path class="st1" d="M321.7,7.5h-37.5c-0.5,0-0.8,0.4-0.8,0.8v51.5c0,0.5,0.4,0.8,0.8,0.8h7.3c0.5,0,0.8-0.4,0.8-0.8V39h26.2
		c0.5,0,0.8-0.4,0.8-0.8v-6.7c0-0.5-0.4-0.8-0.8-0.8h-26.2V16h29.4c0.5,0,0.8-0.4,0.8-0.8V8.4C322.5,7.9,322.1,7.5,321.7,7.5z"/>
	<path class="st1" d="M343.3,7.5H336c-0.5,0-0.8,0.4-0.8,0.8v51.5c0,0.5,0.4,0.8,0.8,0.8h7.3c0.5,0,0.8-0.4,0.8-0.8V8.4
		C344.1,7.9,343.7,7.5,343.3,7.5z"/>
	<path class="st1" d="M405.1,7.5H398c-0.5,0-0.8,0.4-0.8,0.8v36.1L368.4,7.9c-0.2-0.2-0.4-0.3-0.6-0.3h-6.5c-0.5,0-0.8,0.4-0.8,0.8
		v51.5c0,0.5,0.4,0.8,0.8,0.8h7.1c0.5,0,0.8-0.4,0.8-0.8v-37l29.3,37.2l0.2,0.3c0.2,0.2,0.4,0.3,0.6,0.3h5.7c0.5,0,0.8-0.4,0.8-0.8
		V8.4C405.9,7.9,405.5,7.5,405.1,7.5z"/>
	<path class="st1" d="M460.5,15.1L460.5,15.1c-2.5-2.4-5.5-4.2-9-5.6c-3.4-1.3-7.2-2-11.3-2h-18.1c-0.5,0-0.8,0.4-0.8,0.8v51.5
		c0,0.5,0.4,0.8,0.8,0.8h18.1c4.1,0,7.9-0.7,11.3-2c3.4-1.4,6.4-3.2,8.9-5.6c2.5-2.4,4.5-5.2,5.8-8.5c1.4-3.2,2.1-6.8,2.1-10.6
		c0-3.7-0.7-7.2-2.1-10.4C465,20.3,463,17.5,460.5,15.1z M440.3,52.2h-10V16h10c2.9,0,5.6,0.5,7.9,1.4c2.3,0.9,4.4,2.2,6,3.8
		c1.6,1.6,2.9,3.5,3.8,5.7c0.9,2.2,1.3,4.6,1.3,7.3c0,2.5-0.5,4.9-1.3,7.1c-0.9,2.2-2.2,4.1-3.8,5.7c-1.6,1.6-3.6,2.9-6,3.8
		C445.9,51.8,443.2,52.2,440.3,52.2z"/>
	<path class="st1" d="M518.8,52.4h-29.6V38.1h29.6c0.5,0,0.8-0.4,0.8-0.8v-6.7c0-0.5-0.4-0.8-0.8-0.8h-29.6V15.9h29.6
		c0.5,0,0.8-0.4,0.8-0.8V8.4c0-0.5-0.4-0.8-0.8-0.8h-37.7c-0.5,0-0.8,0.4-0.8,0.8v51.5c0,0.5,0.4,0.8,0.8,0.8h37.7
		c0.5,0,0.8-0.4,0.8-0.8v-6.7C519.6,52.7,519.3,52.4,518.8,52.4z"/>
	<path class="st1" d="M579.9,59.4l-14.8-19.7c1.1-0.3,2.2-0.7,3.3-1.2c1.8-0.9,3.4-2,4.8-3.3c1.4-1.4,2.4-3,3.2-4.8
		c0.8-1.9,1.1-3.9,1.1-6.4c0-2.2-0.4-4.2-1.1-6.1c-0.7-1.9-1.8-3.5-3.2-4.9c-1.7-1.7-3.9-3.1-6.6-4.1C564,8,561,7.5,557.8,7.5h-22.3
		c-0.5,0-0.8,0.4-0.8,0.8v51.5c0,0.5,0.4,0.8,0.8,0.8h7.3c0.5,0,0.8-0.4,0.8-0.8V41.3h11.8l14.2,19.1c0.2,0.2,0.4,0.3,0.7,0.3h9
		c0.3,0,0.6-0.2,0.7-0.5C580.1,60,580.1,59.7,579.9,59.4z M567.8,27.9c-0.5,1-1.3,1.9-2.2,2.7c-1,0.8-2.2,1.3-3.5,1.8
		c-1.4,0.4-3,0.6-4.7,0.6h-13.7V16h13.8c3.7,0,6.5,0.8,8.4,2.3c1.9,1.4,2.7,3.4,2.7,6.1C568.5,25.7,568.3,26.9,567.8,27.9z"/>
	<g>
		<path class="st0" d="M197.9,7.8L197.9,7.8c-8.5,0-27.7,27.4-27.7,48.7c0,1.3,0.3,4,0.3,4c0,0.5,0.4,0.8,0.8,0.8h7
			c0.5,0,0.8-0.4,0.8-0.8c0,0,0-8.2,0.8-10.4h0.1H216h0.1c0.8,2.2,0.8,10.4,0.8,10.4c0,0.5,0.4,0.8,0.8,0.8h7c0.5,0,0.8-0.4,0.8-0.8
			c0,0,0.3-2.7,0.3-4C225.8,35.3,206.4,7.8,197.9,7.8z M182,42.9c2-12.2,13.1-26,16.2-26c3.9,0,14.9,16.8,16.2,26H182z"/>
	</g>
	<path class="st0" d="M83,32.5c-0.5-9-15.8-18.3-22.4-21.9C50.5,5.2,36.1-0.5,25.8,0c-3.6,0.2-8,0.9-9.8,4.7
		c-2.1,4.3,0.9,8.4,4.7,13.5c3.5,4.8,7.9,10.8,8.3,17.1c0.3,6.3-3.4,12.7-6.5,17.9c-3.2,5.5-5.7,9.8-3.3,13.9c0.3,0.5,0.6,0.9,1,1.3
		c2,2,4.9,2.4,7.6,2.4c0.6,0,1.1,0,1.6,0c10.3-0.5,24.1-7.7,33.6-14.2C69.2,52.4,83.5,41.5,83,32.5z M30.3,57.8
		c3.4-5.9,8.1-13.9,7.7-22.9c-0.5-9-6-16.5-10-22c-0.2-0.3-0.6-0.7-1-1.2c-0.5-0.6-1.8-1.9-1.7-2.3c0,0,0.2-0.2,1-0.3
		c6.7-0.5,18.5,3.3,30,9.5C68.4,25.2,73.9,31.3,74,33c0.1,1.7-4.7,8.3-16.1,16.1C47.8,56,36.2,61,28.9,61.7c-0.2,0-0.3,0-0.3,0
		c0,0,0,0,0,0C28.5,61.5,28.5,60.8,30.3,57.8z"/>
	<path class="st2" d="M35.2,17.3c-7.8-4.2-19-8.6-27-8.2c-2.8,0.1-6.3,0.7-7.7,3.7c-1.6,3.4,0.8,6.8,3.6,10.6
		c2.7,3.7,6.1,8.3,6.3,13.1c0.2,4.8-2.6,9.7-5,13.7C3.1,54.3,1,57.9,3,61.1c0.2,0.4,0.5,0.7,0.8,1c1.6,1.6,3.9,1.9,6,1.9
		c0.4,0,0.9,0,1.3,0c8-0.4,18.6-5.9,26-11C43,49,53,41.1,52.6,34.3C52.3,27.3,40.3,20.1,35.2,17.3z M11.9,53.9
		c2.7-4.6,6.3-10.8,6-17.8c-0.4-7-4.6-12.8-7.8-17.1l0,0c-0.2-0.3-0.5-0.6-0.8-0.9C8.9,17.7,8,16.8,8,16.5c0,0,0.1-0.1,0.7-0.1
		c0.3,0,0.6,0,0.9,0c5.3,0,13.8,2.8,22.2,7.4c9.3,5.1,13.5,9.7,13.6,11C45.4,36,41.7,41,32.9,47c-7.7,5.3-16.7,9.2-22.3,9.7
		c0,0-0.1,0-0.1,0C10.6,56.4,10.8,55.6,11.9,53.9z"/>
	<path class="st0" d="M28,12.9c-0.2-0.3-0.6-0.7-1-1.2c-0.5-0.6-1.8-1.9-1.7-2.3c0,0,0.2-0.2,1-0.3c1.4-0.1,3.1,0,5,0.3l-9-8.9
		C19.7,1,17.2,2.1,16,4.7c-2.1,4.3,0.9,8.4,4.7,13.5c2,2.7,4.3,5.9,6,9.2l8.3,8.2l2.9-2.9C36.6,24.7,31.7,17.9,28,12.9z"/>
</g>
</svg>
